<svg width="26" height="26" fill="none" xmlns="http://www.w3.org/2000/svg"><path d="M24 .234H2c-1.121 0-2 .879-2 2v21.534c0 1.121.879 2 2 2h22c1.121 0 2-.879 2-2V2.234c0-1.121-.879-2-2-2zm0 23.534H2L1.985 2.236s.004-.002.015-.002h22v21.534z" fill="#481E8C"/><path d="M9.937 8.596a1 1 0 00-1.362-.167l-8.167 6 1.185 1.612 7.406-5.442 10.532 14.707 1.54-1.276L9.936 8.596z" fill="#481E8C"/><path d="M19.553 9.484a1 1 0 00-1.242.002L13 13.5l1.245 1.565 4.69-3.52 5.445 4.307 1.24-1.568-6.067-4.8z" fill="#481E8C"/></svg>