<svg width="26" height="26" fill="none" xmlns="http://www.w3.org/2000/svg"><path d="M24 .234H2c-1.121 0-2 .879-2 2v21.534c0 1.121.879 2 2 2h22c1.121 0 2-.879 2-2V2.234c0-1.121-.879-2-2-2zm0 23.534H2L1.985 2.236s.004-.002.015-.002h22v21.534z" fill="#481E8C"/><path d="M21 5.727A.727.727 0 0020.273 5H5.727a.727.727 0 000 1.455h14.546A.727.727 0 0021 5.727zM21 13a.727.727 0 00-.727-.727H5.727a.727.727 0 000 1.454h14.546A.727.727 0 0021 13zm-5.333-3.636a.727.727 0 00-.728-.728H5.727a.727.727 0 000 1.455h9.212a.727.727 0 00.728-.727zm0 7.272a.727.727 0 00-.728-.727H5.727a.727.727 0 000 1.455h9.212a.727.727 0 00.728-.728zM21 20.273a.727.727 0 00-.727-.727H5.727a.727.727 0 100 1.454h14.546a.727.727 0 00.727-.727z" fill="#481E8C"/></svg>