<svg width="17" height="18" fill="none" xmlns="http://www.w3.org/2000/svg"><path d="M15.474 2.178h-1.368v-.934C14.106.557 13.549 0 12.862 0h-.05c-.687 0-1.244.557-1.244 1.244v.934H5.15v-.934C5.15.557 4.593 0 3.906 0h-.05c-.687 0-1.244.557-1.244 1.244v.934H1.244C.557 2.178 0 2.735 0 3.422v13.334C0 17.443.557 18 1.244 18h14.23c.687 0 1.244-.557 1.244-1.244V3.422c0-.687-.557-1.244-1.244-1.244zm-.846 13.857H2.09v-10.1h12.538v10.1z" fill="#C3C2C9"/><path d="M3.794 10.505h2.164c.11 0 .199-.089.199-.199V8.142a.2.2 0 00-.199-.2H3.794a.2.2 0 00-.2.2v2.164c0 .11.09.2.2.2zm3.483 0H9.44a.2.2 0 00.2-.199V8.142a.2.2 0 00-.2-.2H7.277a.2.2 0 00-.2.2v2.164c0 .11.09.2.2.2zm3.483 0h2.164a.2.2 0 00.2-.199V8.142a.2.2 0 00-.2-.2H10.76a.2.2 0 00-.2.2v2.164a.2.2 0 00.2.2zm-6.966 3.483h2.164a.2.2 0 00.199-.2v-2.163a.2.2 0 00-.199-.2H3.794a.2.2 0 00-.2.2v2.164a.2.2 0 00.2.199zm3.483 0H9.44a.2.2 0 00.2-.2v-2.163a.2.2 0 00-.2-.2H7.277a.2.2 0 00-.2.2v2.164a.2.2 0 00.2.199zm3.483 0h2.164a.2.2 0 00.2-.2v-2.163a.2.2 0 00-.2-.2H10.76a.2.2 0 00-.2.2v2.164a.2.2 0 00.2.199z" fill="#C3C2C9"/></svg>