<svg width="16" height="16" fill="none" xmlns="http://www.w3.org/2000/svg"><path d="M13.531 2.47A7.774 7.774 0 008 .179a7.77 7.77 0 00-5.531 2.293C-.384 5.32-.59 9.874 1.95 12.959c-.35.718-.764 1.196-1.233 1.425a.732.732 0 00-.4.763c.05.318.292.564.61.613.174.026.36.043.554.043.96 0 1.97-.331 2.812-.911 1.134.61 2.409.93 3.706.93a7.77 7.77 0 005.532-2.29 7.769 7.769 0 002.291-5.529 7.776 7.776 0 00-2.29-5.532zm-.626 10.434A6.896 6.896 0 018 14.934a6.939 6.939 0 01-3.513-.953.458.458 0 00-.223-.062.46.46 0 00-.272.092 4.215 4.215 0 01-2.454.9c.527-.393.97-1.002 1.34-1.85a.445.445 0 00-.075-.472 6.942 6.942 0 01.291-9.5A6.896 6.896 0 018 1.06c1.852 0 3.596.72 4.906 2.03 2.707 2.71 2.707 7.112 0 9.815z" fill="#BFC0C4"/><path d="M11.277 5.419H4.722a.44.44 0 00-.442.442.44.44 0 00.442.442h6.555a.443.443 0 000-.884zm0 2.139H4.722A.44.44 0 004.28 8a.44.44 0 00.442.442h6.555a.443.443 0 000-.884zM9.144 9.697H4.722a.44.44 0 00-.442.442.44.44 0 00.442.442h4.422a.443.443 0 000-.884z" fill="#BFC0C4"/><path fill-rule="evenodd" clip-rule="evenodd" d="M2.342 2.345A7.951 7.951 0 017.999 0c2.139 0 4.147.834 5.658 2.345A7.954 7.954 0 0116 8.003a7.946 7.946 0 01-2.343 5.655A7.949 7.949 0 018 16c-1.29 0-2.56-.31-3.695-.901-.85.56-1.858.881-2.823.881-.203 0-.399-.017-.58-.044a.905.905 0 01-.76-.761v-.002a.91.91 0 01.498-.948c.398-.195.77-.601 1.1-1.243-2.52-3.154-2.286-7.75.603-10.637zM7.999.355a7.596 7.596 0 00-5.406 2.241c-2.786 2.785-2.988 7.235-.506 10.25l.073.089-.05.102c-.36.735-.795 1.253-1.314 1.507a.554.554 0 00-.302.577c.037.242.22.426.46.463.166.025.344.04.527.04.921 0 1.896-.317 2.711-.879l.09-.061.095.051a7.657 7.657 0 003.622.91 7.592 7.592 0 005.407-2.238 7.59 7.59 0 002.238-5.404 7.6 7.6 0 00-2.238-5.407A7.596 7.596 0 007.999.356zm0 .882a6.718 6.718 0 00-4.78 1.979 6.765 6.765 0 00-.284 9.255c.159.182.202.44.105.661-.279.64-.602 1.155-.977 1.549a4.12 4.12 0 001.82-.81l.002-.002a.638.638 0 01.378-.128c.11 0 .22.033.312.086l.001.001A6.762 6.762 0 008 14.757a6.718 6.718 0 004.78-1.98c2.638-2.632 2.638-6.922 0-9.561A6.718 6.718 0 008 1.236zM2.968 2.964A7.074 7.074 0 017.999.881c1.9 0 3.688.74 5.032 2.083 2.776 2.778 2.777 7.293 0 10.065A7.074 7.074 0 018 15.112a7.117 7.117 0 01-3.602-.977l.09-.154-.09.153v.001a.28.28 0 00-.134-.038.283.283 0 00-.164.055l-.109-.141.107.142H4.1a4.392 4.392 0 01-2.558.936l-.557.013.446-.333c.495-.369.922-.949 1.284-1.78a.268.268 0 00-.046-.282 7.12 7.12 0 01.3-9.743zm1.134 2.897c0-.344.276-.62.62-.62h6.555a.62.62 0 010 1.24H4.722a.618.618 0 01-.62-.62zm.62-.264a.263.263 0 00-.264.264c0 .147.117.264.264.264h6.555a.265.265 0 000-.529H4.722zM4.102 8c0-.344.276-.62.62-.62h6.555a.62.62 0 010 1.24H4.722a.618.618 0 01-.62-.62zm.62-.264A.263.263 0 004.458 8c0 .148.117.264.264.264h6.555a.265.265 0 000-.529H4.722zm-.62 2.403c0-.344.276-.62.62-.62h4.422a.62.62 0 010 1.24H4.722a.618.618 0 01-.62-.62zm.62-.264a.263.263 0 00-.264.264c0 .148.117.264.264.264h4.422a.265.265 0 000-.529H4.722z" fill="#BFC0C4"/></svg>