<svg width="28" height="17" fill="none" xmlns="http://www.w3.org/2000/svg"><path d="M23.766 7h2.754a.961.961 0 010 1.922h-7.56a.96.96 0 010-1.922h4.805zm0-3h2.754a.961.961 0 010 1.922h-7.56a.96.96 0 010-1.922h4.805zm0 6h2.754a.961.961 0 010 1.922h-7.56a.96.96 0 110-1.922h4.805z" fill="#B4B3BB"/><path d="M4.294 6.815h4.687a.37.37 0 00.365-.373.37.37 0 00-.365-.373H4.294a.37.37 0 00-.365.373.37.37 0 00.365.373zM8.981 9.41H4.294a.37.37 0 01-.365-.373.37.37 0 01.365-.373h4.687a.37.37 0 01.365.373.37.37 0 01-.365.373z" fill="#C3C2C9"/><path fill-rule="evenodd" clip-rule="evenodd" d="M12.105 1H1.365A.37.37 0 001 1.373v14.254c0 .148.086.282.219.342.132.06.287.033.394-.068l1.27-1.197a.358.358 0 01.49-.005l.834.76c.417.382 1.048.38 1.463-.004l.82-.757a.358.358 0 01.49 0l.82.757a1.076 1.076 0 001.464.004l.833-.76a.358.358 0 01.49.005l1.27 1.197a.36.36 0 00.395.068.374.374 0 00.219-.342V1.373A.37.37 0 0012.105 1zm-.365 13.775l-.657-.62a1.075 1.075 0 00-1.473-.013l-.832.76a.359.359 0 01-.488-.001l-.82-.757a1.075 1.075 0 00-1.468 0l-.821.757a.359.359 0 01-.488.001l-.833-.76a1.074 1.074 0 00-1.472.013l-.658.62V1.747h10.01v13.028z" fill="#C3C2C9"/><path d="M4.294 6.815h4.687a.37.37 0 00.365-.373.37.37 0 00-.365-.373H4.294a.37.37 0 00-.365.373.37.37 0 00.365.373zM8.981 9.41H4.294a.37.37 0 01-.365-.373.37.37 0 01.365-.373h4.687a.37.37 0 01.365.373.37.37 0 01-.365.373z" stroke="#B4B3BB" stroke-width=".8"/><path clip-rule="evenodd" d="M12.105 1H1.365A.37.37 0 001 1.373v14.254c0 .148.086.282.219.342.132.06.287.033.394-.068l1.27-1.197a.358.358 0 01.49-.005l.834.76c.417.382 1.048.38 1.463-.004l.82-.757a.358.358 0 01.49 0l.82.757a1.076 1.076 0 001.464.004l.833-.76a.358.358 0 01.49.005l1.27 1.197a.36.36 0 00.395.068.374.374 0 00.219-.342V1.373A.37.37 0 0012.105 1zm-.365 13.775l-.657-.62a1.075 1.075 0 00-1.473-.013l-.832.76a.359.359 0 01-.488-.001l-.82-.757a1.075 1.075 0 00-1.468 0l-.821.757a.359.359 0 01-.488.001l-.833-.76a1.074 1.074 0 00-1.472.013l-.658.62V1.747h10.01v13.028z" stroke="#B4B3BB" stroke-width=".8"/></svg>