<svg width="14" height="14" fill="none" xmlns="http://www.w3.org/2000/svg"><path d="M6.756 7.95h.067c.46-.007.855-.13 1.18-.363a1.846 1.846 0 00.31-.28c.813-.918.678-2.49.663-2.64-.053-1.125-.585-1.664-1.025-1.915a2.349 2.349 0 00-1.136-.298h-.036c-.234 0-.695.038-1.136.29-.444.25-.985.79-1.038 1.924-.014.15-.15 1.721.664 2.638a1.917 1.917 0 00.323.291c.32.227.71.346 1.164.353zM5.169 4.72c0-.006.003-.012.003-.016.07-1.515 1.144-1.677 1.605-1.677h.025c.57.012 1.54.245 1.606 1.677 0 .006 0 .012.002.017.002.014.15 1.45-.522 2.207-.266.3-.62.448-1.088.452h-.02c-.466-.004-.823-.152-1.087-.452-.67-.752-.526-2.195-.524-2.207z" fill="#C3C2C9"/><path d="M5.592 7.597a1.826 1.826 0 01-.146-.114.283.283 0 00-.257.036 6.029 6.029 0 01-1.775.804c-.914.314-.944 1.288-.957 1.706v.003c0 .02 0 .036-.002.053v.006c-.002.11-.004 2.129.108 2.412a.27.27 0 00.11.133l.509.364c-.034-.17-.163-2.708-.159-2.898 0-.017.003-.034.003-.053.014-.481.07-1.007.561-1.183 1.052-.27 1.893-.857 1.929-.88a.285.285 0 00.076-.389zm2.534-.107c-.04.034-.081.067-.124.097L8 7.59a.285.285 0 00.07.397c.036.026.876.61 1.928.881.493.176.548.702.562 1.183 0 .02 0 .036.002.053.003.19-.074 2.727-.107 2.896l.464-.364a.282.282 0 00.11-.133c.106-.281.104-2.3.102-2.41v-.006l-.002-.053v-.003c-.013-.42-.043-1.394-.957-1.706l-.022-.006a6.096 6.096 0 01-1.753-.798.284.284 0 00-.27-.031z" fill="#C3C2C9"/><path d="M11.13 10.094v-.007m0 .007c.003.11.005 2.128-.1 2.409a.282.282 0 01-.11.133l-.465.364c.033-.17.11-2.706.107-2.896-.002-.017-.002-.034-.002-.053-.014-.481-.07-1.007-.562-1.183a6.579 6.579 0 01-1.928-.88A.285.285 0 018 7.59l.002-.003m3.129 2.507v-.007m0 0l-.002-.053v-.003c-.013-.42-.043-1.394-.957-1.706l-.022-.006a6.096 6.096 0 01-1.753-.798.284.284 0 00-.27-.031m-5.672 2.595a.452.452 0 00.002-.053v-.003c.013-.418.043-1.392.957-1.706a6.029 6.029 0 001.774-.805.283.283 0 01.258-.035m-2.99 2.602v.006m0-.006v.006m0 0c-.003.11-.005 2.129.107 2.412a.27.27 0 00.11.133l.509.364c-.034-.17-.163-2.708-.159-2.898 0-.017.003-.034.003-.053.014-.481.07-1.007.561-1.183 1.052-.27 1.893-.857 1.929-.88a.285.285 0 00.076-.389m0 0a1.829 1.829 0 01-.146-.114m.146.114a.287.287 0 00-.146-.114m.146.114c.32.227.71.346 1.164.353h.067c.46-.007.855-.13 1.18-.363m-2.557-.104a1.917 1.917 0 01-.177-.177c-.814-.917-.678-2.488-.664-2.638.053-1.134.594-1.673 1.038-1.925.441-.25.902-.289 1.136-.289h.036c.427.009.809.11 1.136.298.44.251.972.79 1.025 1.916.015.15.15 1.721-.663 2.638a1.933 1.933 0 01-.187.184m0 0c-.04.034-.081.067-.124.097m.124-.097a.286.286 0 00-.124.097M5.17 4.721c0-.007.003-.013.003-.017.07-1.515 1.144-1.677 1.605-1.677h.025c.57.012 1.54.245 1.606 1.677 0 .006 0 .012.002.017.002.014.15 1.45-.522 2.207-.266.3-.62.448-1.088.452h-.02c-.466-.004-.823-.152-1.087-.452-.67-.752-.526-2.195-.524-2.207z" stroke="#C3C2C9" stroke-width=".3"/><rect x=".5" y=".5" width="12.636" height="12.636" rx="2.5" stroke="#C3C2C9"/></svg>