<svg width="14" height="14" fill="none" xmlns="http://www.w3.org/2000/svg"><path fill-rule="evenodd" clip-rule="evenodd" d="M7 1a3.473 3.473 0 013.469 3.469A3.473 3.473 0 017 7.937a5.07 5.07 0 00-5.041 4.595.505.505 0 01-.49.468.442.442 0 01-.451-.468 5.955 5.955 0 011.74-3.775 5.976 5.976 0 012.28-1.43A3.468 3.468 0 017 1zM4.469 4.469A2.534 2.534 0 007 7a2.534 2.534 0 002.531-2.531A2.534 2.534 0 007 1.937 2.534 2.534 0 004.469 4.47z" fill="#BFC0C4"/><path d="M9.016 10.187a.469.469 0 000 .938h1.289v1.39a.469.469 0 10.937 0v-1.39h1.29a.469.469 0 100-.938h-1.29v-1.45a.469.469 0 00-.937 0v1.45h-1.29z" fill="#BFC0C4"/><path clip-rule="evenodd" d="M7 1a3.473 3.473 0 013.469 3.469A3.473 3.473 0 017 7.937a5.07 5.07 0 00-5.041 4.595.505.505 0 01-.49.468.442.442 0 01-.451-.468 5.955 5.955 0 011.74-3.775 5.976 5.976 0 012.28-1.43A3.468 3.468 0 017 1zM4.469 4.469A2.534 2.534 0 007 7a2.534 2.534 0 002.531-2.531A2.534 2.534 0 007 1.937 2.534 2.534 0 004.469 4.47z" stroke="#BFC0C4" stroke-width=".5"/><path d="M9.016 10.187a.469.469 0 000 .938h1.289v1.39a.469.469 0 10.937 0v-1.39h1.29a.469.469 0 100-.938h-1.29v-1.45a.469.469 0 00-.937 0v1.45h-1.29z" stroke="#BFC0C4" stroke-width=".5"/></svg>