<svg width="12" height="12" fill="none" xmlns="http://www.w3.org/2000/svg"><path d="M10.252 1.513C9.158.504 7.797 0 6.172 0c-1.71 0-3.166.573-4.368 1.72C.602 2.87 0 4.297 0 6.006 0 7.643.573 9.05 1.716 10.23 2.864 11.41 4.406 12 6.348 12a8.67 8.67 0 003.444-.722.734.734 0 00.396-.947.732.732 0 00-.969-.397c-.98.421-1.939.632-2.874.632-1.488 0-2.641-.453-3.459-1.362a4.62 4.62 0 01-1.224-3.192c0-1.327.438-2.433 1.312-3.322.872-.886 1.946-1.331 3.22-1.331 1.172 0 2.163.364 2.971 1.094.808.73 1.212 1.647 1.212 2.754 0 .756-.186 1.388-.556 1.89-.37.504-.754.754-1.153.754-.215 0-.323-.115-.323-.348 0-.188.015-.409.042-.663l.455-3.724H7.275l-.1.365c-.399-.326-.837-.49-1.312-.49-.754 0-1.4.302-1.936.901-.539.6-.806 1.374-.806 2.319 0 .922.238 1.669.715 2.235.477.567 1.05.849 1.72.849.6 0 1.112-.252 1.538-.754.32.482.793.722 1.418.722.918 0 1.71-.399 2.38-1.2.667-.797 1.003-1.762 1.003-2.89 0-1.43-.546-2.652-1.643-3.66zM6.644 7.146c-.277.372-.607.56-.992.56-.262 0-.472-.137-.631-.411-.162-.274-.243-.614-.243-1.023 0-.505.113-.91.338-1.22.225-.308.505-.464.837-.464.29 0 .546.115.772.347.225.233.337.541.337.928a2.119 2.119 0 01-.418 1.283z" fill="#BFC0C4"/></svg>