<svg width="10" height="10" fill="none" xmlns="http://www.w3.org/2000/svg"><path d="M9.256 1.21h-.819V.69C8.438.309 8.104 0 7.694 0h-.03c-.41 0-.743.31-.743.691v.519H3.08V.69c0-.381-.333-.69-.744-.69h-.03c-.41 0-.744.31-.744.691v.519H.745c-.41 0-.744.31-.744.69v7.41C0 9.69.333 10 .744 10h8.512c.41 0 .744-.31.744-.691V1.9c0-.382-.333-.691-.744-.691zM8.75 8.908h-7.5V3.297h7.5v5.611z" fill="#BFC0C4"/><path d="M2.27 5.836h1.294c.066 0 .119-.05.119-.11V4.523c0-.06-.053-.11-.12-.11H2.27c-.065 0-.119.05-.119.11v1.203c0 .06.054.11.12.11zm2.083 0h1.294c.066 0 .12-.05.12-.11V4.523c0-.06-.054-.11-.12-.11H4.353c-.066 0-.12.05-.12.11v1.203c0 .06.054.11.12.11zm2.083 0h1.295c.066 0 .119-.05.119-.11V4.523c0-.06-.053-.11-.119-.11H6.436c-.065 0-.119.05-.119.11v1.203c0 .06.054.11.12.11zM2.27 7.771h1.294c.066 0 .119-.05.119-.11V6.457c0-.061-.053-.11-.12-.11H2.27c-.065 0-.119.049-.119.11V7.66c0 .062.054.111.12.111zm2.083 0h1.294c.066 0 .12-.05.12-.11V6.457c0-.061-.054-.11-.12-.11H4.353c-.066 0-.12.049-.12.11V7.66c0 .062.054.111.12.111zm2.083 0h1.295c.066 0 .119-.05.119-.11V6.457c0-.061-.053-.11-.119-.11H6.436c-.065 0-.119.049-.119.11V7.66c0 .062.054.111.12.111z" fill="#BFC0C4"/></svg>