<svg width="10" height="10" fill="none" xmlns="http://www.w3.org/2000/svg"><path d="M9.995 7.892a.484.484 0 01-.148.424L8.439 9.714a.792.792 0 01-.249.18 1.028 1.028 0 01-.503.106 4.86 4.86 0 01-.65-.069c-.3-.046-.668-.159-1.102-.339a9.239 9.239 0 01-1.476-.81c-.55-.36-1.137-.855-1.758-1.483A11.605 11.605 0 011.473 5.9 9.964 9.964 0 01.69 4.666 6.65 6.65 0 01.245 3.64a5.454 5.454 0 01-.2-.795 2.625 2.625 0 01-.033-.736c.014-.099.046-.2.096-.302a.794.794 0 01.18-.249L1.696.148A.466.466 0 012.034 0a.39.39 0 01.244.08c.07.052.13.118.18.195l1.133 2.15a.516.516 0 01.052.372.66.66 0 01-.18.339l-.518.519a.177.177 0 00-.037.069.262.262 0 00-.016.079c.028.148.092.318.19.508.085.17.216.376.392.62.177.244.427.524.752.842.317.325.6.578.847.758.247.18.453.312.619.397.166.085.293.136.381.154l.132.026a.252.252 0 00.07-.016.177.177 0 00.068-.037l.603-.614a.648.648 0 01.445-.17c.12 0 .215.021.286.064h.01l2.044 1.207a.533.533 0 01.264.35z" fill="#BFC0C4"/></svg>