<svg width="15" height="14" fill="none" xmlns="http://www.w3.org/2000/svg"><path d="M7.202.96A6.248 6.248 0 00.96 7.201c0 1.272.383 2.456 1.04 3.443L.925 12.783a.84.84 0 101.502.753l.776-1.546a6.212 6.212 0 003.998 1.453 6.21 6.21 0 003.828-1.317l.707 1.41a.84.84 0 101.502-.753l-.973-1.94a6.206 6.206 0 001.177-3.641c0-3.442-2.8-6.242-6.241-6.242zm0 10.803A4.566 4.566 0 012.64 7.2 4.566 4.566 0 017.2 2.64a4.566 4.566 0 014.562 4.56 4.566 4.566 0 01-4.561 4.561z" fill="#A2A2A3"/><path d="M7.202 4.876a.48.48 0 00-.48.48v1.82l-1.938 2.28a.48.48 0 10.731.622l1.993-2.344a.477.477 0 00.174-.368v-2.01a.48.48 0 00-.48-.48zM4.132.709A2.42 2.42 0 10.71 4.132L4.132.71zm9.614 0a2.42 2.42 0 00-3.424 0l3.424 3.423a2.42 2.42 0 000-3.423z" fill="#A2A2A3"/></svg>