<svg width="31" height="30" fill="none" xmlns="http://www.w3.org/2000/svg"><path d="M16.924 7.46c1.936.526 4.078.93 5.85-.011l3.811-2.025A15.009 15.009 0 0013.713.058C5.45.781-.664 8.057.058 16.31c.722 8.252 8.006 14.356 16.27 13.633 8.264-.723 14.377-7.999 13.655-16.251a15.049 15.049 0 00-.56-2.962l-.038.003-4.397 2.227c-1.738.88-2.65 2.778-3.32 4.608-.98 2.67-3.397 4.667-6.374 4.927-4.132.362-7.4-2.78-7.768-6.989-.368-4.209 2.683-7.913 6.815-8.275a7.374 7.374 0 012.583.23z" fill="url(#paint0_linear)"/><defs><linearGradient id="paint0_linear" x1="15.021" y1="0" x2="15.021" y2="30" gradientUnits="userSpaceOnUse"><stop stop-color="#fff"/><stop offset="1" stop-color="#fff"/></linearGradient></defs></svg>