<svg width="1208" height="322" fill="none" xmlns="http://www.w3.org/2000/svg"><path d="M890.622 2h-2v110.165c-17.325-19.102-41.084-28.591-71.04-28.591-30.919 0-57.434 11.49-79.441 34.384h0c-21.719 22.615-32.569 50.458-32.569 83.398s10.849 60.923 32.56 83.827l.009.01.009.009c22.009 22.598 48.522 33.936 79.432 33.936 30.168 0 54.052-9.624 71.407-28.998 2.426 16.407 16.567 28.998 33.648 28.998h28.146V2h-60.161zm-18.996 156.476l.009.009.009.009c11.291 10.984 16.978 25.21 16.978 42.862 0 17.648-5.685 32.029-16.989 43.311-11.307 10.993-25.663 16.527-43.23 16.527-17.562 0-32.077-5.531-43.691-16.537-11.297-11.28-16.979-25.658-16.979-43.301 0-17.652 5.687-31.878 16.978-42.862 11.62-11.303 26.135-16.976 43.692-16.976s31.911 5.672 43.223 16.958zm271.544-84.218h-2v128.53c0 19.075-4.64 33.012-13.58 42.188-8.99 9.235-21.01 13.922-36.29 13.922-13.73 0-24.51-3.928-32.55-11.617-8-7.954-12.13-19.402-12.13-34.651V74.259h-64.827v145.869c0 30.679 8.443 54.975 25.557 72.624v.006l.01.007c17.38 17.591 39.28 26.369 65.55 26.369 30.36 0 53.38-9.683 68.7-29.259 2.66 16.586 17.03 29.259 34.37 29.259H1206V74.258h-62.83zm-924.76 47.324l2.173-1.153-1.574-1.892c-24.823-29.846-63.422-47.446-105.069-43.802C46.487 80.636-3.421 140.027 2.473 207.393c5.893 67.365 65.357 117.187 132.81 111.286 67.453-5.902 117.361-65.292 111.467-132.658a122.784 122.784 0 00-4.577-24.179l-.464-1.567-1.628.142-.303.027-.385.034-.344.174-35.305 17.882c-14.72 7.455-22.248 23.408-27.637 38.094-7.616 20.757-26.383 36.245-49.476 38.265-31.914 2.792-57.33-21.44-60.205-54.305-2.864-32.728 20.859-61.475 52.901-64.278a57.194 57.194 0 0120.047 1.779c15.501 4.217 33.433 7.712 48.429-.252l30.607-16.255zm144.754-35.701c-10.41 6.24-18.469 14.97-24.183 26.126V78.984h-63.496v240.152h63.496V204.255c0-22.241 6.912-37.722 20.343-46.995 3.237-2.184 8.689-4.152 15.562-5.814 6.82-1.65 14.834-2.953 23.031-3.901 8.718-1.009 16.036-6.866 19.422-14.853 6.04-14.246 14.35-27.358 24.941-39.34a5.968 5.968 0 001.502-3.949V74.26h-2c-7.939 0-24.19.953-40.069 2.849-7.945.948-15.835 2.137-22.571 3.572-6.666 1.419-12.43 3.123-15.96 5.189l-.009.005-.009.005zm155.812 165.166c-9.853-6.422-16.837-15.872-20.909-28.487h174.866l.3-1.64c1.574-8.619 2.365-16.799 2.365-24.538 0-34.547-11.375-63.642-34.15-87.152-22.489-23.537-51.173-35.286-85.889-35.286-36.549 0-66.628 11.726-90.061 35.257-23.416 23.21-35.111 52.319-35.111 87.181 0 35.172 11.855 64.44 35.594 87.652 23.768 23.241 55.254 34.785 94.243 34.785 45.15 0 79.603-16.372 103.041-49.233l1.448-2.03-2.296-.973-28.554-12.103c-15.508-6.574-33.046-1.697-48.142 3.33-7.245 2.412-15.425 3.634-24.564 3.634-17.634 0-31.64-3.526-42.181-10.397zm91.907-78.107H497.006c3.513-13.004 10.072-23.013 19.626-30.157l.015-.011.014-.011c10.156-7.886 23.073-11.897 38.898-11.897 13.289 0 25.006 3.683 35.224 11.028l.011.008.011.008c9.832 6.867 16.555 17.147 20.078 31.032z" stroke="#fff" stroke-opacity=".04" stroke-width="4"/></svg>