<svg width="156" height="40" fill="none" xmlns="http://www.w3.org/2000/svg"><path d="M114.394 0h7.43v39.998h-3.34a4.09 4.09 0 01-4.09-4.09c-2.188 2.727-5.298 4.09-9.329 4.09-3.878 0-7.199-1.419-9.963-4.257-2.726-2.876-4.09-6.386-4.09-10.532 0-4.145 1.364-7.637 4.09-10.476 2.764-2.875 6.085-4.313 9.963-4.313 4.031 0 7.141 1.363 9.329 4.09V0zm-13.706 30.923c1.536 1.457 3.455 2.185 5.759 2.185 2.304 0 4.204-.728 5.701-2.185 1.498-1.494 2.246-3.398 2.246-5.714 0-2.316-.748-4.201-2.246-5.658-1.497-1.494-3.397-2.24-5.701-2.24s-4.223.746-5.759 2.24c-1.497 1.457-2.246 3.343-2.246 5.658 0 2.316.749 4.22 2.246 5.714zm47.109-21.691h7.77V40h-3.58a4.19 4.19 0 01-4.19-4.19c-1.887 2.793-4.879 4.19-8.974 4.19-3.293 0-6.024-1.097-8.192-3.292-2.128-2.195-3.192-5.228-3.192-9.099V9.232h7.77v17.42c0 1.995.542 3.531 1.626 4.608 1.084 1.038 2.53 1.557 4.337 1.557 2.007 0 3.613-.619 4.818-1.856 1.205-1.237 1.807-3.093 1.807-5.567V9.232zM17.359 16.88c1.985.541 4.182.954 5.999-.01l3.91-2.077A15.394 15.394 0 0014.065 9.29C5.59 10.031-.68 17.494.06 25.958.8 34.422 8.271 40.682 16.747 39.94c8.476-.741 14.746-8.204 14.006-16.668a15.434 15.434 0 00-.575-3.038l-.039.003-4.51 2.285c-1.783.903-2.717 2.85-3.405 4.726-1.005 2.738-3.484 4.787-6.538 5.054-4.238.37-7.589-2.852-7.967-7.169-.377-4.317 2.752-8.117 6.99-8.487.916-.08 1.81.006 2.65.235zm38.561-5.971a.507.507 0 01-.128.335 18.65 18.65 0 00-3.23 5.094c-.4.942-1.259 1.626-2.275 1.743-2.107.244-4.138.672-5.044 1.284-1.807 1.247-2.71 3.318-2.71 6.214v14.419h-7.6V9.833h7.6v5.188c.707-1.93 1.865-3.378 3.476-4.343 1.65-.966 7.908-1.448 9.91-1.448v1.679z" fill="#fff"/><path fill-rule="evenodd" clip-rule="evenodd" d="M72.31 33.138c-4.568 0-7.37-1.826-8.402-5.478h22.467a17.19 17.19 0 00.298-3.089c0-4.35-1.43-8.002-4.29-10.955-2.822-2.952-6.417-4.429-10.787-4.429-4.61 0-8.384 1.477-11.324 4.43-2.94 2.913-4.41 6.564-4.41 10.954 0 4.43 1.49 8.1 4.47 11.014 2.98 2.913 6.933 4.37 11.86 4.37 5.696 0 10.014-2.06 12.953-6.181l-3.647-1.546c-1.88-.798-4.03-.213-5.969.432-.956.318-2.028.478-3.218.478zm6.675-11.305H63.788c.438-1.865 1.332-3.302 2.682-4.313 1.351-1.049 3.06-1.573 5.126-1.573 1.748 0 3.297.486 4.648 1.457 1.39.971 2.304 2.447 2.741 4.429z" fill="#fff"/></svg>