<svg width="21" height="16" fill="none" xmlns="http://www.w3.org/2000/svg"><path d="M0 14.308v1.021c0 .37.3.671.67.671h8.004c.37 0 .67-.3.67-.67v-1.022a.67.67 0 00-.67-.671H.67a.67.67 0 00-.671.67zm1.138-5.194l.269-.655c.155-.376.513-.62.918-.63a.676.676 0 01.038-.125l.213-.517a.67.67 0 01-.298-.843l1.068-2.599a.67.67 0 01.804-.39l.213-.517a.67.67 0 01.061-.116 1.018 1.018 0 01-.209-1.093l.27-.654A1.568 1.568 0 016.537.119l3.44 1.415c.802.33 1.186 1.25.856 2.052l-.27.655c-.154.376-.513.62-.918.63a.676.676 0 01-.038.124l-.213.517a.67.67 0 01.328.763l.166.068a.67.67 0 01.409.712l2.532 1.042a.67.67 0 01.693-.113l6.54 2.69a.67.67 0 01.366.876l-.522 1.268a.671.671 0 01-.875.365l-6.541-2.69a.67.67 0 01-.413-.569L9.545 8.882a.67.67 0 01-.792.219l-.166-.069a.671.671 0 01-.767.312l-.213.517a.666.666 0 01-.062.116c.272.282.369.709.21 1.093l-.269.655a1.568 1.568 0 01-2.053.856l-3.44-1.415a1.574 1.574 0 01-.855-2.052z" fill="#481E8C"/></svg>