<svg width="20" height="20" fill="none" xmlns="http://www.w3.org/2000/svg"><path d="M19.872 3.45a.465.465 0 00-.326-.117h-4.39l-.994-2.174c-.142-.321-.398-.595-.767-.82A2.133 2.133 0 0012.273 0H7.727c-.378 0-.753.113-1.122.338-.37.226-.625.5-.767.82l-.994 2.175H.454a.465.465 0 00-.326.117.389.389 0 00-.128.3v.833a.39.39 0 00.128.3A.465.465 0 00.454 5h1.364v12.396c0 .72.223 1.334.668 1.842.445.508.98.762 1.605.762h11.818c.625 0 1.16-.262 1.605-.788.445-.525.668-1.148.668-1.868V5h1.364a.464.464 0 00.326-.117.389.389 0 00.128-.3V3.75a.389.389 0 00-.128-.3zM7.514 1.81a.405.405 0 01.242-.144h4.502a.406.406 0 01.242.144l.682 1.523H6.818l.696-1.523zm8.85 15.534c0 .19-.033.367-.1.527a1.15 1.15 0 01-.206.352c-.07.074-.12.11-.149.11H4.091c-.029 0-.078-.036-.15-.11a1.142 1.142 0 01-.205-.352 1.37 1.37 0 01-.1-.527V5h12.728v12.344z" fill="#B4B3BB"/><path d="M5.91 15.834h.908a.464.464 0 00.327-.118.39.39 0 00.128-.3v-7.5a.389.389 0 00-.128-.299.465.465 0 00-.327-.117H5.91a.465.465 0 00-.327.117.389.389 0 00-.127.3v7.5a.39.39 0 00.127.3.465.465 0 00.327.117zm3.636 0h.909a.464.464 0 00.326-.118.388.388 0 00.128-.3v-7.5a.388.388 0 00-.128-.299.464.464 0 00-.326-.117h-.91a.465.465 0 00-.326.117.388.388 0 00-.128.3v7.5a.39.39 0 00.128.3.465.465 0 00.327.117zm3.636 0h.909a.465.465 0 00.327-.118.389.389 0 00.127-.3v-7.5a.389.389 0 00-.127-.299.465.465 0 00-.327-.117h-.909a.466.466 0 00-.327.117.389.389 0 00-.128.3v7.5a.39.39 0 00.128.3.465.465 0 00.327.117z" fill="#B4B3BB"/></svg>