<svg width="27" height="17" fill="none" xmlns="http://www.w3.org/2000/svg"><path d="M4.294 6.815h4.687a.37.37 0 00.365-.373.37.37 0 00-.365-.373H4.294a.37.37 0 00-.365.373.37.37 0 00.365.373zM8.981 9.41H4.294a.37.37 0 01-.365-.373.37.37 0 01.365-.373h4.687a.37.37 0 01.365.373.37.37 0 01-.365.373z" fill="#C3C2C9"/><path fill-rule="evenodd" clip-rule="evenodd" d="M12.105 1H1.365A.37.37 0 001 1.373v14.254c0 .148.086.282.219.342.132.06.287.033.394-.068l1.27-1.197a.358.358 0 01.49-.005l.834.76c.417.382 1.048.38 1.463-.004l.82-.757a.358.358 0 01.49 0l.82.757a1.076 1.076 0 001.464.004l.833-.76a.358.358 0 01.49.005l1.27 1.197a.36.36 0 00.395.068.374.374 0 00.219-.342V1.373A.37.37 0 0012.105 1zm-.365 13.775l-.657-.62a1.075 1.075 0 00-1.473-.013l-.832.76a.359.359 0 01-.488-.001l-.82-.757a1.075 1.075 0 00-1.468 0l-.821.757a.359.359 0 01-.488.001l-.833-.76a1.074 1.074 0 00-1.472.013l-.658.62V1.747h10.01v13.028z" fill="#C3C2C9"/><path d="M4.294 6.815h4.687a.37.37 0 00.365-.373.37.37 0 00-.365-.373H4.294a.37.37 0 00-.365.373.37.37 0 00.365.373zM8.981 9.41H4.294a.37.37 0 01-.365-.373.37.37 0 01.365-.373h4.687a.37.37 0 01.365.373.37.37 0 01-.365.373z" stroke="#B4B3BB" stroke-width=".8"/><path clip-rule="evenodd" d="M12.105 1H1.365A.37.37 0 001 1.373v14.254c0 .148.086.282.219.342.132.06.287.033.394-.068l1.27-1.197a.358.358 0 01.49-.005l.834.76c.417.382 1.048.38 1.463-.004l.82-.757a.358.358 0 01.49 0l.82.757a1.076 1.076 0 001.464.004l.833-.76a.358.358 0 01.49.005l1.27 1.197a.36.36 0 00.395.068.374.374 0 00.219-.342V1.373A.37.37 0 0012.105 1zm-.365 13.775l-.657-.62a1.075 1.075 0 00-1.473-.013l-.832.76a.359.359 0 01-.488-.001l-.82-.757a1.075 1.075 0 00-1.468 0l-.821.757a.359.359 0 01-.488.001l-.833-.76a1.074 1.074 0 00-1.472.013l-.658.62V1.747h10.01v13.028z" stroke="#B4B3BB" stroke-width=".8"/><path d="M26.942 4.725a.197.197 0 00-.146-.058H24.82l-.447-1.088a.898.898 0 00-.345-.41.892.892 0 00-.505-.169h-2.046a.891.891 0 00-.505.17.898.898 0 00-.345.41l-.447 1.087h-1.976a.197.197 0 00-.204.208v.417c0 .06.02.11.058.15a.197.197 0 00.146.058h.614v6.198c0 .36.1.667.3.921.2.254.442.381.723.381h5.318c.281 0 .522-.131.723-.394.2-.262.3-.574.3-.934V5.5h.614A.197.197 0 0027 5.292v-.417a.21.21 0 00-.058-.15zm-5.56-.82a.18.18 0 01.108-.072h2.026a.18.18 0 01.109.072l.307.762h-2.864l.313-.762zm3.982 7.767a.75.75 0 01-.138.44c-.032.036-.054.055-.067.055h-5.318c-.013 0-.035-.019-.067-.056a.752.752 0 01-.138-.44v-6.17h5.728v6.172z" fill="#B4B3BB"/><path d="M20.66 10.917h.408c.06 0 .109-.02.147-.059a.205.205 0 00.058-.15v-3.75a.21.21 0 00-.058-.15.197.197 0 00-.147-.058h-.409a.197.197 0 00-.204.208v3.75a.197.197 0 00.204.208zm1.636 0h.409c.06 0 .108-.02.147-.059a.204.204 0 00.057-.15v-3.75a.197.197 0 00-.204-.208h-.41a.197.197 0 00-.204.208v3.75a.197.197 0 00.204.208zm1.636 0h.409c.06 0 .109-.02.147-.059a.205.205 0 00.057-.15v-3.75a.197.197 0 00-.204-.208h-.41a.197.197 0 00-.204.208v3.75c0 .061.02.111.058.15a.197.197 0 00.147.059z" fill="#B4B3BB"/></svg>