<svg width="100" height="89" fill="none" xmlns="http://www.w3.org/2000/svg"><path d="M50-11C22.366-11 0 11.363 0 39c0 8.77 2.287 17.336 6.63 24.89L.189 83.896a3.906 3.906 0 004.916 4.916l20.006-6.443A49.885 49.885 0 0050 89c27.634 0 50-22.362 50-50 0-27.634-22.362-50-50-50zm0 92.188a42.065 42.065 0 01-22.33-6.392 3.909 3.909 0 00-3.269-.406L9.96 79.04l4.65-14.44a3.909 3.909 0 00-.406-3.269A42.071 42.071 0 017.812 39C7.813 15.738 26.738-3.188 50-3.188c23.262 0 42.188 18.926 42.188 42.188 0 23.262-18.926 42.188-42.188 42.188z" fill="#fff" fill-opacity=".4"/></svg>