<svg width="14" height="14" fill="none" xmlns="http://www.w3.org/2000/svg"><path fill-rule="evenodd" clip-rule="evenodd" d="M12.492 3.2l-1.756-1.761-4.444 4.457 1.755 1.76L12.492 3.2zm.55-2.973l.782.787a.6.6 0 010 .85l-.875.877L11.193.98l.75-.754a.777.777 0 011.098 0zM5.614 8.61a.2.2 0 01-.242-.238l.444-1.998 1.755 1.76-1.957.476zm5.317-2.147a.685.685 0 111.366 0v6.852a.684.684 0 01-.683.686H.683A.685.685 0 010 13.314V2.35c0-.378.306-.685.683-.685h6.833a.685.685 0 010 1.371h-6.15v9.594h9.566V6.462z" fill="#29006C"/></svg>