<svg width="28" height="27" fill="none" xmlns="http://www.w3.org/2000/svg"><path d="M14.328 14.387h11.941a.728.728 0 00.731-.73.728.728 0 00-.73-.731H14.327a3.716 3.716 0 00-3.638-2.978 3.716 3.716 0 00-3.638 2.978H1.736a.728.728 0 00-.73.73c0 .406.324.731.73.731h5.316a3.717 3.717 0 003.638 2.977 3.715 3.715 0 003.638-2.977zm-5.885-.73a2.248 2.248 0 012.247-2.247 2.248 2.248 0 012.246 2.246 2.248 2.248 0 01-2.246 2.247 2.248 2.248 0 01-2.247-2.247zm12.012-8.218h5.814a.728.728 0 00.731-.73.728.728 0 00-.73-.732h-5.815A3.716 3.716 0 0016.818 1a3.716 3.716 0 00-3.638 2.977H1.736a.728.728 0 00-.73.731c0 .406.324.73.73.73h11.45a3.716 3.716 0 003.637 2.978 3.71 3.71 0 003.632-2.977zm-5.884-.73a2.248 2.248 0 012.247-2.247 2.248 2.248 0 012.246 2.246 2.248 2.248 0 01-2.246 2.247 2.251 2.251 0 01-2.247-2.247zm5.884 18.571h5.814a.727.727 0 00.731-.73.728.728 0 00-.73-.73h-5.815a3.716 3.716 0 00-3.637-2.978 3.716 3.716 0 00-3.638 2.977H1.73a.728.728 0 00-.73.731c0 .406.325.73.73.73h11.455a3.717 3.717 0 003.638 2.978 3.705 3.705 0 003.632-2.977zm-5.884-.73a2.248 2.248 0 012.247-2.246 2.248 2.248 0 012.246 2.246 2.248 2.248 0 01-2.246 2.247 2.248 2.248 0 01-2.247-2.247z" fill="#B4B3BB"/><path d="M14.328 14.387v-.25h-.205l-.04.201.245.05zm0-1.461l-.246.049.04.2h.206v-.25zm-7.276 0v.25h.205l.04-.201-.245-.05zm0 1.461l.245-.05-.04-.2h-.205v.25zM20.455 5.44v-.25h-.204l-.04.2.244.05zm0-1.462l-.245.05.04.2h.205v-.25zm-7.275 0v.25h.205l.04-.2-.245-.05zm.005 1.462l.245-.05-.04-.2h-.205v.25zm7.27 17.842v-.25h-.204l-.04.2.244.05zm0-1.462l-.245.05.04.2h.205v-.25zm-7.275 0v.25h.205l.04-.2-.245-.05zm.005 1.462l.245-.05-.04-.2h-.205v.25zm1.143-8.644h11.941v-.5H14.328v.5zm11.941 0a.978.978 0 00.981-.98h-.5c0 .267-.213.48-.48.48v.5zm.981-.98a.978.978 0 00-.98-.981v.5c.267 0 .48.213.48.48h.5zm-.98-.981H14.327v.5h11.941v-.5zm-11.697.2a3.966 3.966 0 00-3.883-3.178v.5a3.466 3.466 0 013.392 2.777l.49-.099zM10.69 9.698a3.966 3.966 0 00-3.883 3.178l.49.099a3.466 3.466 0 013.393-2.777v-.5zm-3.638 2.978H1.736v.5h5.316v-.5zm-5.316 0a.978.978 0 00-.98.98h.5c0-.268.212-.48.48-.48v-.5zm-.98.98c0 .544.436.981.98.981v-.5a.478.478 0 01-.48-.48h-.5zm.98.981h5.316v-.5H1.736v.5zm5.071-.2a3.967 3.967 0 003.883 3.178v-.5a3.466 3.466 0 01-3.393-2.777l-.49.099zm3.883 3.178a3.965 3.965 0 003.883-3.179l-.49-.098a3.466 3.466 0 01-3.393 2.777v.5zm-1.997-3.959c0-1.101.895-1.996 1.997-1.996v-.5a2.498 2.498 0 00-2.497 2.496h.5zm1.997-1.996c1.101 0 1.996.895 1.996 1.996h.5a2.498 2.498 0 00-2.496-2.496v.5zm1.996 1.996a1.998 1.998 0 01-1.996 1.997v.5a2.498 2.498 0 002.496-2.497h-.5zm-1.996 1.997a1.998 1.998 0 01-1.997-1.997h-.5a2.498 2.498 0 002.497 2.497v-.5zm9.765-9.964h5.814v-.5h-5.814v.5zm5.814 0a.978.978 0 00.981-.98h-.5c0 .267-.213.48-.48.48v.5zm.981-.98a.978.978 0 00-.98-.982v.5c.267 0 .48.213.48.481h.5zm-.98-.982h-5.815v.5h5.814v-.5zm-5.57.201A3.966 3.966 0 0016.818.75v.5a3.467 3.467 0 013.392 2.777l.49-.099zM16.818.75a3.967 3.967 0 00-3.883 3.178l.49.099a3.466 3.466 0 013.393-2.777v-.5zM13.18 3.727H1.736v.5H13.18v-.5zm-11.444 0a.978.978 0 00-.98.981h.5c0-.268.212-.48.48-.48v-.5zm-.98.981c0 .544.436.98.98.98v-.5a.478.478 0 01-.48-.48h-.5zm.98.98h11.45v-.5H1.735v.5zm11.204-.2a3.967 3.967 0 003.883 3.178v-.5A3.467 3.467 0 0113.43 5.39l-.49.098zm3.883 3.178A3.96 3.96 0 0020.7 5.488l-.49-.098a3.46 3.46 0 01-3.387 2.776v.5zm-2.002-3.958c0-1.101.895-1.996 1.997-1.996v-.5a2.498 2.498 0 00-2.497 2.496h.5zm1.997-1.996c1.101 0 1.996.895 1.996 1.996h.5a2.498 2.498 0 00-2.496-2.496v.5zm1.996 1.996a1.998 1.998 0 01-1.996 1.997v.5a2.498 2.498 0 002.496-2.497h-.5zm-1.996 1.997c-1.102 0-1.997-.9-1.997-1.997h-.5a2.501 2.501 0 002.497 2.497v-.5zm3.637 16.826h5.814v-.5h-5.814v.5zm5.814 0a.978.978 0 00.981-.98h-.5c0 .267-.213.48-.48.48v.5zm.981-.98a.978.978 0 00-.98-.982v.5c.267 0 .48.213.48.481h.5zm-.98-.982h-5.815v.5h5.814v-.5zm-5.57.201a3.966 3.966 0 00-3.882-3.178v.5a3.467 3.467 0 013.392 2.777l.49-.099zm-3.882-3.178a3.967 3.967 0 00-3.883 3.178l.49.099a3.466 3.466 0 013.393-2.777v-.5zm-3.638 2.977H1.73v.5h11.45v-.5zm-11.45 0a.978.978 0 00-.98.981h.5c0-.268.213-.48.48-.48v-.5zm-.98.981c0 .544.437.98.98.98v-.5a.478.478 0 01-.48-.48h-.5zm.98.98h11.455v-.5H1.731v.5zm11.21-.2a3.967 3.967 0 003.883 3.178v-.5a3.466 3.466 0 01-3.393-2.776l-.49.098zm3.883 3.178a3.955 3.955 0 003.878-3.178l-.49-.098a3.455 3.455 0 01-3.388 2.776v.5zm-2.002-3.958c0-1.102.895-1.996 1.997-1.996v-.5a2.498 2.498 0 00-2.497 2.496h.5zm1.997-1.996c1.101 0 1.996.895 1.996 1.996h.5a2.498 2.498 0 00-2.496-2.496v.5zm1.996 1.996a1.998 1.998 0 01-1.996 1.997v.5a2.498 2.498 0 002.496-2.497h-.5zm-1.996 1.997a1.998 1.998 0 01-1.997-1.997h-.5a2.498 2.498 0 002.497 2.497v-.5z" fill="#B4B3BB"/></svg>