<svg width="19" height="18" fill="none" xmlns="http://www.w3.org/2000/svg"><path d="M18.459 8.281a11.126 11.126 0 00-3.922-3.833C12.894 3.483 11.16 3 9.334 3c-1.827 0-3.561.483-5.204 1.448A11.123 11.123 0 00.208 8.281a1.442 1.442 0 00-.208.72c0 .235.07.475.208.718a11.12 11.12 0 003.922 3.833C5.773 14.518 7.507 15 9.334 15c1.826 0 3.56-.48 5.203-1.443a11.052 11.052 0 003.922-3.838c.139-.243.208-.483.208-.719s-.07-.476-.208-.719zM7.099 5.432C7.72 4.811 8.465 4.5 9.333 4.5c.14 0 .257.049.355.146A.483.483 0 019.834 5a.483.483 0 01-.146.354.482.482 0 01-.354.146 2.09 2.09 0 00-1.532.635 2.087 2.087 0 00-.635 1.532.483.483 0 01-.146.354.482.482 0 01-.354.146.482.482 0 01-.354-.146.482.482 0 01-.146-.354c0-.868.31-1.613.932-2.235zm6.76 6.97a8.578 8.578 0 01-4.525 1.265 8.575 8.575 0 01-4.527-1.265C3.415 11.558 2.257 10.424 1.333 9c1.056-1.639 2.379-2.865 3.97-3.677a4.552 4.552 0 00-.636 2.344c0 1.285.456 2.383 1.37 3.297.913.913 2.012 1.37 3.297 1.37 1.284 0 2.383-.457 3.296-1.37.914-.913 1.37-2.012 1.37-3.297 0-.84-.212-1.622-.635-2.344 1.59.812 2.913 2.038 3.969 3.677-.924 1.424-2.082 2.558-3.474 3.402z" fill="#fff"/><path d="M2.02 15.24a1.23 1.23 0 000 1.74L17.98 1.02a1.23 1.23 0 00-1.74 0L2.02 15.24z" fill="#fff" stroke="#FF284F" stroke-width="1.2"/></svg>