<svg width="130" height="30" fill="none" xmlns="http://www.w3.org/2000/svg"><path d="M108.239 10.524V6.393H91.781v17.191h16.458v-4.12H95.736v-2.417h9.87v-4.119h-9.87v-2.405h12.503zM84.52 6.393L80.748 17.07 76.975 6.393h-4.638l-3.761 10.63-3.773-10.63h-4.615l6.074 17.166-.011.024h4.638v-.024l3.761-10.643 3.784 10.667h4.627l6.086-17.19H84.52zm-51.946 0H22.043v17.19h3.943v-4.81h6.588c3.27 0 5.926-2.773 5.926-6.19 0-3.417-2.655-6.19-5.926-6.19zm0 8.25h-6.588v-4.12h6.588c1.094 0 1.971.93 1.971 2.06 0 1.131-.889 2.06-1.971 2.06zm18.097-8.25h-1.972c-4.524 0-8.228 3.869-8.228 8.595 0 4.726 3.704 8.595 8.228 8.595h1.972c4.525 0 8.229-3.869 8.229-8.595 0-4.726-3.704-8.595-8.229-8.595zm3.807 8.595c0 2.452-1.927 4.464-4.274 4.464h-1.026c-2.348 0-4.274-2.012-4.274-4.464 0-2.453 1.926-4.464 4.274-4.464h1.026c2.347 0 4.274 2.011 4.274 4.464zm74.753 8.595l-4.32-5.56c1.858-1.047 3.112-3.095 3.112-5.452 0-3.416-2.656-6.19-5.927-6.19h-10.531v17.19h3.955v-4.81h5.368l3.738 4.81h4.605v.012zm-13.722-8.94v-4.12h6.587c1.094 0 1.972.93 1.972 2.06 0 1.131-.889 2.06-1.972 2.06h-6.587zM0 17.405L13.79 0 9.642 12.536h7.978L3.864 30l4.16-12.595H0z" fill="#fff"/></svg>