<svg width="502" height="322" fill="none" xmlns="http://www.w3.org/2000/svg"><mask id="path-1-outside-1" maskUnits="userSpaceOnUse" x=".95" y=".28" width="501" height="322" fill="#fff"><path d="M.95.28h501v322H.95z"/><path d="M8.02 2.28h120.25V99H97.98V25.68H38.31V99H8.02V2.28zm220.506 22.1h-46.02c0 7.887-.086 14.777-.26 20.67-.173 5.807-.476 10.877-.91 15.21-.346 4.247-.78 7.844-1.3 10.79-.433 2.86-.996 5.33-1.69 7.41-.606 1.994-1.3 3.727-2.08 5.2a41.598 41.598 0 01-2.21 3.9 28.541 28.541 0 01-4.16 4.94c-1.473 1.387-3.25 2.6-5.33 3.64-2.08.954-4.55 1.69-7.41 2.21-2.86.434-6.24.65-10.14.65h-8.45V74.95h1.95c2.34 0 4.247-.216 5.72-.65 1.56-.433 2.904-1.343 4.03-2.73.954-1.213 1.777-3.12 2.47-5.72.694-2.6 1.214-6.5 1.56-11.7.434-5.2.737-11.96.91-20.28.174-8.32.26-18.85.26-31.59h103.35V99h-30.29V24.38zm103.468-1.17l-17.94 36.27h36.66l-18.72-36.27zm29.9 58.11h-58.63L294.554 99h-30.81l48.88-96.72h39.26L403.624 99h-32.63l-9.1-17.68zm65.586-56.16h-41.6V2.28h113.88v22.88h-41.73V99h-30.55V25.16zM74.19 111.98h30.29v8.71h24.83c5.72 0 11.353.737 16.9 2.21 5.547 1.387 10.487 3.597 14.82 6.63 4.42 3.034 7.973 6.977 10.66 11.83 2.687 4.854 4.03 10.704 4.03 17.55v1.43c0 6.934-1.343 12.827-4.03 17.68-2.687 4.854-6.197 8.84-10.53 11.96-4.333 3.034-9.273 5.287-14.82 6.76a69.406 69.406 0 01-16.9 2.08h-24.96v12.48H74.19v-12.48H49.23c-5.72 0-11.353-.693-16.9-2.08-5.547-1.473-10.487-3.726-14.82-6.76-4.333-3.12-7.843-7.106-10.53-11.96-2.687-4.853-4.03-10.746-4.03-17.68v-1.3c0-6.846 1.343-12.696 4.03-17.55 2.687-4.853 6.197-8.796 10.53-11.83 4.42-3.12 9.403-5.373 14.95-6.76a65.57 65.57 0 0116.9-2.21h24.83v-8.71zm30.29 64.74h18.07c7.193 0 12.74-1.473 16.64-4.42 3.987-2.946 5.98-7.02 5.98-12.22v-1.04c0-5.2-1.993-9.186-5.98-11.96-3.987-2.86-9.533-4.29-16.64-4.29h-18.07v33.93zm-48.36-33.93c-7.193 0-12.783 1.43-16.77 4.29-3.9 2.774-5.85 6.76-5.85 11.96v1.04c0 5.2 1.95 9.274 5.85 12.22 3.987 2.947 9.577 4.42 16.77 4.42h18.07v-33.93H56.12zm198.819-31.2c10.14 0 18.85.78 26.13 2.34 7.28 1.56 13.433 3.64 18.46 6.24 5.113 2.6 9.186 5.59 12.22 8.97 3.033 3.294 5.373 6.717 7.02 10.27 1.733 3.467 2.86 6.977 3.38 10.53.52 3.467.78 6.63.78 9.49v3.9c0 2.86-.26 6.024-.78 9.49-.52 3.467-1.604 7.02-3.25 10.66-1.647 3.554-4.03 7.02-7.15 10.4-3.034 3.38-7.064 6.414-12.09 9.1-5.027 2.6-11.224 4.724-18.59 6.37-7.28 1.56-15.99 2.34-26.13 2.34h-5.59c-10.227 0-19.024-.78-26.39-2.34-7.28-1.646-13.434-3.77-18.46-6.37-5.027-2.686-9.1-5.72-12.22-9.1-3.034-3.38-5.374-6.846-7.02-10.4-1.647-3.64-2.73-7.193-3.25-10.66-.52-3.466-.78-6.63-.78-9.49v-3.9c0-2.86.26-6.023.78-9.49.52-3.553 1.603-7.063 3.25-10.53 1.646-3.553 3.986-6.976 7.02-10.27 3.12-3.38 7.193-6.37 12.22-8.97 5.026-2.6 11.18-4.68 18.46-6.24 7.366-1.56 16.163-2.34 26.39-2.34h5.59zm36.27 48.75c0-2.773-.52-5.633-1.56-8.58-.954-3.033-2.86-5.763-5.72-8.19-2.86-2.513-6.847-4.55-11.96-6.11-5.114-1.646-11.744-2.47-19.89-2.47-8.32 0-15.037.824-20.15 2.47-5.114 1.56-9.1 3.597-11.96 6.11-2.774 2.427-4.637 5.157-5.59 8.19-.954 2.947-1.43 5.807-1.43 8.58v1.56c0 2.774.476 5.72 1.43 8.84 1.04 3.034 2.99 5.85 5.85 8.45 2.86 2.6 6.846 4.767 11.96 6.5 5.113 1.647 11.743 2.47 19.89 2.47 8.146 0 14.733-.823 19.76-2.47 5.113-1.646 9.1-3.726 11.96-6.24 2.86-2.6 4.81-5.416 5.85-8.45 1.04-3.12 1.56-6.066 1.56-8.84v-1.82zm72.11 17.42V210h-30.29v-96.72h72.54c8.667 0 15.904.824 21.71 2.47 5.807 1.56 10.443 3.77 13.91 6.63 3.467 2.86 5.893 6.197 7.28 10.01 1.473 3.814 2.21 7.93 2.21 12.35v1.3c0 4.334-.737 8.45-2.21 12.35-1.473 3.814-3.943 7.15-7.41 10.01-3.467 2.86-8.103 5.157-13.91 6.89-5.72 1.647-12.913 2.47-21.58 2.47h-42.25zm0-21.71h41.73c4.767 0 8.277-.866 10.53-2.6 2.34-1.733 3.51-4.246 3.51-7.54v-.39c0-3.293-1.127-5.806-3.38-7.54-2.253-1.82-5.807-2.73-10.66-2.73h-41.73v20.8zM8.41 223.28h43.03l33.41 60.19 33.54-60.19h41.47V320h-29.9v-66.95L91.87 320H75.62l-38.09-66.95V320H8.41v-96.72zm224.307 20.93l-17.94 36.27h36.66l-18.72-36.27zm29.9 58.11h-58.63l-8.71 17.68h-30.81l48.88-96.72h39.26l51.74 96.72h-32.63l-9.1-17.68z"/></mask><path d="M8.02 2.28h120.25V99H97.98V25.68H38.31V99H8.02V2.28zm220.506 22.1h-46.02c0 7.887-.086 14.777-.26 20.67-.173 5.807-.476 10.877-.91 15.21-.346 4.247-.78 7.844-1.3 10.79-.433 2.86-.996 5.33-1.69 7.41-.606 1.994-1.3 3.727-2.08 5.2a41.598 41.598 0 01-2.21 3.9 28.541 28.541 0 01-4.16 4.94c-1.473 1.387-3.25 2.6-5.33 3.64-2.08.954-4.55 1.69-7.41 2.21-2.86.434-6.24.65-10.14.65h-8.45V74.95h1.95c2.34 0 4.247-.216 5.72-.65 1.56-.433 2.904-1.343 4.03-2.73.954-1.213 1.777-3.12 2.47-5.72.694-2.6 1.214-6.5 1.56-11.7.434-5.2.737-11.96.91-20.28.174-8.32.26-18.85.26-31.59h103.35V99h-30.29V24.38zm103.468-1.17l-17.94 36.27h36.66l-18.72-36.27zm29.9 58.11h-58.63L294.554 99h-30.81l48.88-96.72h39.26L403.624 99h-32.63l-9.1-17.68zm65.586-56.16h-41.6V2.28h113.88v22.88h-41.73V99h-30.55V25.16zM74.19 111.98h30.29v8.71h24.83c5.72 0 11.353.737 16.9 2.21 5.547 1.387 10.487 3.597 14.82 6.63 4.42 3.034 7.973 6.977 10.66 11.83 2.687 4.854 4.03 10.704 4.03 17.55v1.43c0 6.934-1.343 12.827-4.03 17.68-2.687 4.854-6.197 8.84-10.53 11.96-4.333 3.034-9.273 5.287-14.82 6.76a69.406 69.406 0 01-16.9 2.08h-24.96v12.48H74.19v-12.48H49.23c-5.72 0-11.353-.693-16.9-2.08-5.547-1.473-10.487-3.726-14.82-6.76-4.333-3.12-7.843-7.106-10.53-11.96-2.687-4.853-4.03-10.746-4.03-17.68v-1.3c0-6.846 1.343-12.696 4.03-17.55 2.687-4.853 6.197-8.796 10.53-11.83 4.42-3.12 9.403-5.373 14.95-6.76a65.57 65.57 0 0116.9-2.21h24.83v-8.71zm30.29 64.74h18.07c7.193 0 12.74-1.473 16.64-4.42 3.987-2.946 5.98-7.02 5.98-12.22v-1.04c0-5.2-1.993-9.186-5.98-11.96-3.987-2.86-9.533-4.29-16.64-4.29h-18.07v33.93zm-48.36-33.93c-7.193 0-12.783 1.43-16.77 4.29-3.9 2.774-5.85 6.76-5.85 11.96v1.04c0 5.2 1.95 9.274 5.85 12.22 3.987 2.947 9.577 4.42 16.77 4.42h18.07v-33.93H56.12zm198.819-31.2c10.14 0 18.85.78 26.13 2.34 7.28 1.56 13.433 3.64 18.46 6.24 5.113 2.6 9.186 5.59 12.22 8.97 3.033 3.294 5.373 6.717 7.02 10.27 1.733 3.467 2.86 6.977 3.38 10.53.52 3.467.78 6.63.78 9.49v3.9c0 2.86-.26 6.024-.78 9.49-.52 3.467-1.604 7.02-3.25 10.66-1.647 3.554-4.03 7.02-7.15 10.4-3.034 3.38-7.064 6.414-12.09 9.1-5.027 2.6-11.224 4.724-18.59 6.37-7.28 1.56-15.99 2.34-26.13 2.34h-5.59c-10.227 0-19.024-.78-26.39-2.34-7.28-1.646-13.434-3.77-18.46-6.37-5.027-2.686-9.1-5.72-12.22-9.1-3.034-3.38-5.374-6.846-7.02-10.4-1.647-3.64-2.73-7.193-3.25-10.66-.52-3.466-.78-6.63-.78-9.49v-3.9c0-2.86.26-6.023.78-9.49.52-3.553 1.603-7.063 3.25-10.53 1.646-3.553 3.986-6.976 7.02-10.27 3.12-3.38 7.193-6.37 12.22-8.97 5.026-2.6 11.18-4.68 18.46-6.24 7.366-1.56 16.163-2.34 26.39-2.34h5.59zm36.27 48.75c0-2.773-.52-5.633-1.56-8.58-.954-3.033-2.86-5.763-5.72-8.19-2.86-2.513-6.847-4.55-11.96-6.11-5.114-1.646-11.744-2.47-19.89-2.47-8.32 0-15.037.824-20.15 2.47-5.114 1.56-9.1 3.597-11.96 6.11-2.774 2.427-4.637 5.157-5.59 8.19-.954 2.947-1.43 5.807-1.43 8.58v1.56c0 2.774.476 5.72 1.43 8.84 1.04 3.034 2.99 5.85 5.85 8.45 2.86 2.6 6.846 4.767 11.96 6.5 5.113 1.647 11.743 2.47 19.89 2.47 8.146 0 14.733-.823 19.76-2.47 5.113-1.646 9.1-3.726 11.96-6.24 2.86-2.6 4.81-5.416 5.85-8.45 1.04-3.12 1.56-6.066 1.56-8.84v-1.82zm72.11 17.42V210h-30.29v-96.72h72.54c8.667 0 15.904.824 21.71 2.47 5.807 1.56 10.443 3.77 13.91 6.63 3.467 2.86 5.893 6.197 7.28 10.01 1.473 3.814 2.21 7.93 2.21 12.35v1.3c0 4.334-.737 8.45-2.21 12.35-1.473 3.814-3.943 7.15-7.41 10.01-3.467 2.86-8.103 5.157-13.91 6.89-5.72 1.647-12.913 2.47-21.58 2.47h-42.25zm0-21.71h41.73c4.767 0 8.277-.866 10.53-2.6 2.34-1.733 3.51-4.246 3.51-7.54v-.39c0-3.293-1.127-5.806-3.38-7.54-2.253-1.82-5.807-2.73-10.66-2.73h-41.73v20.8zM8.41 223.28h43.03l33.41 60.19 33.54-60.19h41.47V320h-29.9v-66.95L91.87 320H75.62l-38.09-66.95V320H8.41v-96.72zm224.307 20.93l-17.94 36.27h36.66l-18.72-36.27zm29.9 58.11h-58.63l-8.71 17.68h-30.81l48.88-96.72h39.26l51.74 96.72h-32.63l-9.1-17.68z" fill="#fff"/><path d="M8.02 2.28h120.25V99H97.98V25.68H38.31V99H8.02V2.28zm220.506 22.1h-46.02c0 7.887-.086 14.777-.26 20.67-.173 5.807-.476 10.877-.91 15.21-.346 4.247-.78 7.844-1.3 10.79-.433 2.86-.996 5.33-1.69 7.41-.606 1.994-1.3 3.727-2.08 5.2a41.598 41.598 0 01-2.21 3.9 28.541 28.541 0 01-4.16 4.94c-1.473 1.387-3.25 2.6-5.33 3.64-2.08.954-4.55 1.69-7.41 2.21-2.86.434-6.24.65-10.14.65h-8.45V74.95h1.95c2.34 0 4.247-.216 5.72-.65 1.56-.433 2.904-1.343 4.03-2.73.954-1.213 1.777-3.12 2.47-5.72.694-2.6 1.214-6.5 1.56-11.7.434-5.2.737-11.96.91-20.28.174-8.32.26-18.85.26-31.59h103.35V99h-30.29V24.38zm103.468-1.17l-17.94 36.27h36.66l-18.72-36.27zm29.9 58.11h-58.63L294.554 99h-30.81l48.88-96.72h39.26L403.624 99h-32.63l-9.1-17.68zm65.586-56.16h-41.6V2.28h113.88v22.88h-41.73V99h-30.55V25.16zM74.19 111.98h30.29v8.71h24.83c5.72 0 11.353.737 16.9 2.21 5.547 1.387 10.487 3.597 14.82 6.63 4.42 3.034 7.973 6.977 10.66 11.83 2.687 4.854 4.03 10.704 4.03 17.55v1.43c0 6.934-1.343 12.827-4.03 17.68-2.687 4.854-6.197 8.84-10.53 11.96-4.333 3.034-9.273 5.287-14.82 6.76a69.406 69.406 0 01-16.9 2.08h-24.96v12.48H74.19v-12.48H49.23c-5.72 0-11.353-.693-16.9-2.08-5.547-1.473-10.487-3.726-14.82-6.76-4.333-3.12-7.843-7.106-10.53-11.96-2.687-4.853-4.03-10.746-4.03-17.68v-1.3c0-6.846 1.343-12.696 4.03-17.55 2.687-4.853 6.197-8.796 10.53-11.83 4.42-3.12 9.403-5.373 14.95-6.76a65.57 65.57 0 0116.9-2.21h24.83v-8.71zm30.29 64.74h18.07c7.193 0 12.74-1.473 16.64-4.42 3.987-2.946 5.98-7.02 5.98-12.22v-1.04c0-5.2-1.993-9.186-5.98-11.96-3.987-2.86-9.533-4.29-16.64-4.29h-18.07v33.93zm-48.36-33.93c-7.193 0-12.783 1.43-16.77 4.29-3.9 2.774-5.85 6.76-5.85 11.96v1.04c0 5.2 1.95 9.274 5.85 12.22 3.987 2.947 9.577 4.42 16.77 4.42h18.07v-33.93H56.12zm198.819-31.2c10.14 0 18.85.78 26.13 2.34 7.28 1.56 13.433 3.64 18.46 6.24 5.113 2.6 9.186 5.59 12.22 8.97 3.033 3.294 5.373 6.717 7.02 10.27 1.733 3.467 2.86 6.977 3.38 10.53.52 3.467.78 6.63.78 9.49v3.9c0 2.86-.26 6.024-.78 9.49-.52 3.467-1.604 7.02-3.25 10.66-1.647 3.554-4.03 7.02-7.15 10.4-3.034 3.38-7.064 6.414-12.09 9.1-5.027 2.6-11.224 4.724-18.59 6.37-7.28 1.56-15.99 2.34-26.13 2.34h-5.59c-10.227 0-19.024-.78-26.39-2.34-7.28-1.646-13.434-3.77-18.46-6.37-5.027-2.686-9.1-5.72-12.22-9.1-3.034-3.38-5.374-6.846-7.02-10.4-1.647-3.64-2.73-7.193-3.25-10.66-.52-3.466-.78-6.63-.78-9.49v-3.9c0-2.86.26-6.023.78-9.49.52-3.553 1.603-7.063 3.25-10.53 1.646-3.553 3.986-6.976 7.02-10.27 3.12-3.38 7.193-6.37 12.22-8.97 5.026-2.6 11.18-4.68 18.46-6.24 7.366-1.56 16.163-2.34 26.39-2.34h5.59zm36.27 48.75c0-2.773-.52-5.633-1.56-8.58-.954-3.033-2.86-5.763-5.72-8.19-2.86-2.513-6.847-4.55-11.96-6.11-5.114-1.646-11.744-2.47-19.89-2.47-8.32 0-15.037.824-20.15 2.47-5.114 1.56-9.1 3.597-11.96 6.11-2.774 2.427-4.637 5.157-5.59 8.19-.954 2.947-1.43 5.807-1.43 8.58v1.56c0 2.774.476 5.72 1.43 8.84 1.04 3.034 2.99 5.85 5.85 8.45 2.86 2.6 6.846 4.767 11.96 6.5 5.113 1.647 11.743 2.47 19.89 2.47 8.146 0 14.733-.823 19.76-2.47 5.113-1.646 9.1-3.726 11.96-6.24 2.86-2.6 4.81-5.416 5.85-8.45 1.04-3.12 1.56-6.066 1.56-8.84v-1.82zm72.11 17.42V210h-30.29v-96.72h72.54c8.667 0 15.904.824 21.71 2.47 5.807 1.56 10.443 3.77 13.91 6.63 3.467 2.86 5.893 6.197 7.28 10.01 1.473 3.814 2.21 7.93 2.21 12.35v1.3c0 4.334-.737 8.45-2.21 12.35-1.473 3.814-3.943 7.15-7.41 10.01-3.467 2.86-8.103 5.157-13.91 6.89-5.72 1.647-12.913 2.47-21.58 2.47h-42.25zm0-21.71h41.73c4.767 0 8.277-.866 10.53-2.6 2.34-1.733 3.51-4.246 3.51-7.54v-.39c0-3.293-1.127-5.806-3.38-7.54-2.253-1.82-5.807-2.73-10.66-2.73h-41.73v20.8zM8.41 223.28h43.03l33.41 60.19 33.54-60.19h41.47V320h-29.9v-66.95L91.87 320H75.62l-38.09-66.95V320H8.41v-96.72zm224.307 20.93l-17.94 36.27h36.66l-18.72-36.27zm29.9 58.11h-58.63l-8.71 17.68h-30.81l48.88-96.72h39.26l51.74 96.72h-32.63l-9.1-17.68z" stroke="#fff" stroke-width="4" mask="url(#path-1-outside-1)"/></svg>