<svg width="30" height="30" fill="none" xmlns="http://www.w3.org/2000/svg"><circle cx="15" cy="15" r="15" fill="#FF284F"/><path d="M18.3 20.214v1.641l1.72-1.64H18.3z" fill="#fff"/><path d="M17.539 19.453h2.547V9H10v13h7.539v-2.547zm-1.142-8.126v.762H13.69v-.762h2.708zm-4.172 6.881c0-.956.778-1.735 1.735-1.735.956 0 1.735.779 1.735 1.735 0 .957-.779 1.735-1.735 1.735a1.737 1.737 0 01-1.735-1.735zm5.638-2.869h-5.64v-.761h5.64v.761zm0-1.625h-5.64v-.761h5.64v.761z" fill="#fff"/><path d="M12.986 18.208a.974.974 0 001.947 0 .974.974 0 00-1.947 0z" fill="#fff"/></svg>