<svg width="30" height="30" fill="none" xmlns="http://www.w3.org/2000/svg"><circle cx="15" cy="15" r="15" fill="#29006C"/><path d="M20.482 15.3c-.081-.027-.3-.116-.36-.201-.01-.014-.024-.043-.043-.08-.11-.219-.368-.73-.89-.73a.914.914 0 00-.256.038c-.49.143-.726.469-.897.706-.1.137-.178.245-.266.262a.408.408 0 01-.077.008c-.084 0-.13-.032-.14-.095-.033-.236-.025-.531-.017-.844.013-.516.028-1.102-.144-1.561-.28-.75-.905-1.353-1.407-1.838a16.67 16.67 0 01-.346-.34 2.642 2.642 0 00-.12-.135c-.056-.062-.11-.12-.15-.181a4.22 4.22 0 01-.417-.936.439.439 0 00-.051-.117C14.845 9.122 14.78 9 14.679 9a.135.135 0 00-.048.01c-.174.065-.212.425-.246.743-.017.164-.034.318-.065.394-.041.098-.105.155-.173.217a.566.566 0 00-.2.288.378.378 0 00.037.301c.031.067.061.129.045.233-.017.11-.07.168-.125.23-.06.068-.121.136-.132.263-.01.13.058.214.124.296.058.072.113.14.111.236 0 .081-.05.122-.11.173-.08.067-.18.151-.147.353.021.133.11.203.187.264.074.059.12.098.117.166a.747.747 0 01-.035.163c-.04.139-.085.295.032.467.042.062.182.186.338.313-.428-.196-1.063-.443-1.726-.547-1.09-.171-2.145-.594-2.713-.82-.267-.107-.387-.155-.434-.155-.03 0-.041.02-.044.027-.011.031.016.06.08.115l.176.145c.234.194.418.347.496.424a2.796 2.796 0 01-.164-.067c-.037-.016-.067-.01-.084.014a.078.078 0 00-.012.045c0 .207.596 1.225 1.42 2.207.594.709 1.736 1.898 2.705 1.898.058 0 .115-.005.17-.013-.385.399-1.787 1.45-3.03 1.966-1.5.623-2.179.943-2.226 1.194-.01.056.009.11.058.158.066.063.128.093.194.093.047 0 .09-.015.132-.03a.408.408 0 01.136-.03.33.33 0 01.176.06c.157.1.347.206.599.206.263 0 .553-.115.887-.352a.304.304 0 01.184-.064.61.61 0 01.11.013.762.762 0 00.131.014.52.52 0 00.322-.126c.827-.633 1.728-.752 2.682-.877 1.126-.149 2.29-.302 3.542-1.265 1.065-.819 1.275-1.522 1.414-1.988l.043-.138c.139-.432.22-.533.323-.568.067-.024.235-.091.383-.151l.219-.087c.037-.013.04-.035.04-.047 0-.013-.002-.042-.096-.064z" fill="#fff"/></svg>