<svg width="30" height="30" fill="none" xmlns="http://www.w3.org/2000/svg"><circle cx="15" cy="15" r="15" fill="#002987"/><path d="M23.447 14.539a4.026 4.026 0 00-3.23-3.707c-.091-2.14-1.865-3.829-4.024-3.832h-4.897a.804.804 0 00-.802.708l-1.489 12.8a.801.801 0 00.802.892h2.574l-.113.669a.8.8 0 00.796.931h2.654c.407 0 .75-.3.8-.7l.45-3.567h2.451c2.227 0 4.032-1.79 4.033-4 0-.064-.002-.13-.005-.194zM12.46 20.867H9.807a.267.267 0 01-.267-.298l1.49-12.8a.268.268 0 01.266-.236h4.897c1.83.003 3.35 1.406 3.482 3.217a4.343 4.343 0 00-.363-.017h-4.79a.804.804 0 00-.801.709l-.258 2.211a.267.267 0 00.237.296.268.268 0 00.297-.235l.258-2.211a.268.268 0 01.267-.236h4.79c.121 0 .242.005.36.017-.15 1.796-1.662 3.18-3.479 3.183H13.98c-.407 0-.75.3-.8.7l-.719 5.7zm9.487-3.742h.001a3.479 3.479 0 01-2.53 1.075H16.73c-.136 0-.25.1-.267.234l-.479 3.8a.268.268 0 01-.267.233h-2.654a.268.268 0 01-.265-.31l.165-.98v-.005l.001-.006.748-5.932A.268.268 0 0113.98 15h2.213c2.078-.003 3.815-1.57 4.013-3.622a3.486 3.486 0 012.704 3.186 3.424 3.424 0 01-.962 2.561z" fill="#fff"/></svg>