<svg width="30" height="30" fill="none" xmlns="http://www.w3.org/2000/svg"><circle cx="15" cy="15" r="15" fill="#FF8C00"/><path d="M20.71 18.755c.041.31-.052.445-.155.445-.104 0-.249-.124-.404-.372-.155-.249-.217-.528-.134-.673.052-.093.155-.134.3-.082.258.093.362.496.393.682zm-1.469.683c.32.269.414.59.248.806-.093.125-.248.186-.424.186a.738.738 0 01-.486-.175c-.29-.248-.372-.662-.186-.89a.415.415 0 01.331-.144c.176.01.362.082.517.217zm-.527 2.585c1.365 0 2.844.465 4.478 1.924.165.144.382-.031.238-.217-1.614-2.038-3.103-2.42-4.582-2.751-1.81-.404-2.75-1.417-3.402-2.544-.134-.228-.186-.186-.197.103-.01.352.01.817.093 1.272h-.217a4.71 4.71 0 01-4.705-4.705 4.71 4.71 0 014.705-4.706 4.71 4.71 0 014.675 5.254c-.342-.062-1.024-.073-1.5-.031-.176.01-.155.103-.02.124 1.55.279 2.626 1.24 2.864 2.999.01.041.062.052.083.02a7.056 7.056 0 001.003-3.65A7.115 7.115 0 0015.115 8 7.106 7.106 0 008 15.105a7.115 7.115 0 007.115 7.115c1.045.01 2.079-.197 3.599-.197z" fill="#fff"/></svg>