<svg width="30" height="30" fill="none" xmlns="http://www.w3.org/2000/svg"><circle cx="15" cy="15" r="15" fill="#3B9E40"/><path fill-rule="evenodd" clip-rule="evenodd" d="M20.218 8.59l-.67-.613-7.797 4.463-3.716-2.126-.384.766 4.1 2.376 8.467-4.866zm-1.475-1.13l-.9-.46-6.092 3.506L9.05 8.954l-.556.67 3.257 1.859 6.992-4.023zm2.567 2.433l-.498-.67-9.061 5.21-4.406-2.529-.21.843 4.616 2.644 9.56-5.498zm1.303 4.29c0-.868-.14-1.698-.422-2.49l-.421-1.072-10.02 5.747L7 13.667v.517c0 1.047.204 2.062.613 3.046a7.555 7.555 0 001.667 2.49 8.055 8.055 0 002.47 1.648 7.658 7.658 0 006.092 0 7.705 7.705 0 002.491-1.648A7.965 7.965 0 0022 17.23l.191-.518c.281-.817.422-1.66.422-2.528z" fill="#fff"/></svg>