<svg width="30" height="30" fill="none" xmlns="http://www.w3.org/2000/svg"><circle cx="15" cy="15" r="15" fill="#036CB5"/><path fill-rule="evenodd" clip-rule="evenodd" d="M16.527 21.134l1.86-1.715 1.61 1.84a8.71 8.71 0 01-1.053.698A7.937 7.937 0 0115 23c-4.405 0-8-3.593-8-8 0-4.406 3.595-8 8-8a7.965 7.965 0 014.003 1.073l-.735.66-1.104-1.145-1.867 1.667-1.106-1.211-3.483 3.135 2.232 2.46-.879.77 2.199 2.461-.873.77 3.14 3.494zm2.292-11.476l.95-.856.856.95-.95.856-.856-.95zm-1.72-.62l-1.428 1.285 1.285 1.428 1.427-1.285-1.285-1.428zm4.157 6.282l.95-.857.857.95-.95.857-.857-.95zm-1.622-.403l-1.427 1.289 1.288 1.425 1.427-1.289-1.288-1.425zm-2.842 1.16l-1.902 1.711 1.712 1.903 1.903-1.712-1.713-1.903zm3.25-3.596l.948-.857.858.95-.949.856-.857-.95zm-4.6.299l-1.904 1.713 1.713 1.903 1.904-1.713-1.713-1.903zm-3.263-1.53l1.903-1.713 1.713 1.903-1.903 1.713-1.713-1.903zm6.23.659l-1.424 1.285 1.288 1.427 1.424-1.285-1.288-1.427zm2.482 5.892l-1.428 1.286 1.287 1.428 1.427-1.286-1.287-1.428z" fill="#fff"/></svg>