<svg width="30" height="30" fill="none" xmlns="http://www.w3.org/2000/svg"><circle cx="15" cy="15" r="15" fill="#292825"/><path fill-rule="evenodd" clip-rule="evenodd" d="M6.62 18.797h.473L5.473 11H5l1.62 7.797zM7.498 11l1.654 7.831h3.443l.692-4.942.692 4.942h3.409l1.654-7.797h-.04l.006-.034h-2.7l-.725 4.847-.693-4.813h-.062L14.823 11h-3.14l-.693 4.506-.657-4.472v.657L10.232 11H7.498zm.844 7.797h-.44L6.25 11h.472l1.62 7.797zm12.692-2.16c.135-.169.202-.439.202-.742V11h3.038v4.76c0 1.113-.303 1.923-.911 2.464-.586.488-1.484.756-2.666.775V19h-.136c-.742 0-1.35-.067-1.823-.236a2.435 2.435 0 01-1.012-.54L19.245 11h.574v4.86c0 .338.033.608.168.777.135.169.304.27.54.27.203 0 .372-.101.507-.27z" fill="#fff"/></svg>