<svg width="19" height="26" fill="none" xmlns="http://www.w3.org/2000/svg"><path d="M11 1H3c-1.103 0-2 .897-2 2v14.4c0 1.103.897 2 2 2h7.2v-.8H3c-.662 0-1.2-.538-1.2-1.2V3c0-.662.538-1.2 1.2-1.2h8c.662 0 1.2.538 1.2 1.2v11.6h.8V3c0-1.103-.897-2-2-2z" fill="#29006C"/><path d="M16.836 11.654L12.912 6.75l-.625.5 3.924 4.904c.51.636.79 1.435.789 2.25V24.2h-5.852A3.752 3.752 0 017.4 20.452V19h-.8v1.452A4.553 4.553 0 0011.148 25H17.4a.4.4 0 00.4-.4V14.404c0-.995-.341-1.972-.964-2.75z" fill="#29006C"/><path d="M7.798 10.433c.281.008.542.125.735.33l5.376 5.711.582-.548-5.376-5.713a1.84 1.84 0 00-1.294-.58c-.5-.016-.965.166-1.32.502l-.04.039a1.847 1.847 0 00-.106 2.505L9.8 16.746v1.237a5.35 5.35 0 003.46 4.99l.28-.748a4.549 4.549 0 01-2.94-4.242V16.6a.402.402 0 00-.095-.259l-3.539-4.179c-.354-.421-.328-1.034.08-1.442a1.07 1.07 0 01.752-.287z" fill="#29006C"/><path d="M10.6 1.8h-.8v10h.8v-10zm-2 12.4h-.8V19h.8v-4.8zm0-12.8h-.8v8.8h.8V1.4zM5.8 14.2H3.4a.4.4 0 00-.4.4V17c0 .221.18.4.4.4h2.4a.4.4 0 00.4-.4v-2.4a.4.4 0 00-.4-.4zm-.4 2.4H3.8V15h1.6v1.6z" fill="#29006C"/><path d="M10.2 19.4v.25h.25v-.25h-.25zm0-.8h.25v-.25h-.25v.25zm2-4h-.25v.25h.25v-.25zm.8 0v.25h.25v-.25H13zm3.836-2.946l.196-.156-.196.156zM12.912 6.75l.196-.156-.157-.195-.195.156.156.195zm-.625.5l-.156-.195-.195.156.156.196.195-.157zm3.924 4.904l-.195.156.195-.156zm.789 2.25h-.25.25zm0 9.796v.25h.25v-.25H17zM7.4 19h.25v-.25H7.4V19zm-.8 0v-.25h-.25V19h.25zm11.2-4.596h-.25.25zm-10.002-3.97l.008-.25H7.8l-.002.25zm.735.328l.182-.171-.182.171zm5.376 5.712l-.183.171.172.183.182-.172-.171-.182zm.582-.548l.172.182.182-.171-.172-.183-.182.172zm-5.376-5.713l.182-.171-.182.171zm-1.294-.58l-.008.25h.001l.007-.25zm-1.32.502l-.172-.182-.005.005.177.176zm-.04.039l.177.176.008-.009-.185-.167zm-.106 2.505l-.192.16.001.001.19-.162zM9.8 16.746h.25v-.092l-.06-.07-.19.162zm0 1.237h.25-.25zm3.46 4.99l-.088.235.234.088.088-.234-.234-.088zm.28-.748l.235.087.087-.234-.234-.087-.088.234zm-2.94-4.242h.25-.25zm-.095-1.643l.191-.161-.19.161zm-3.539-4.179l-.191.161v.001l.191-.162zm.08-1.442l-.171-.182-.005.005.176.177zM9.8 1.8v-.25h-.25v.25h.25zm.8 0h.25v-.25h-.25v.25zm0 10v.25h.25v-.25h-.25zm-.8 0h-.25v.25h.25v-.25zm-2 2.4v-.25h-.25v.25h.25zm.8 0h.25v-.25H8.6v.25zm0 4.8v.25h.25V19H8.6zm-.8 0h-.25v.25h.25V19zm0-17.6v-.25h-.25v.25h.25zm.8 0h.25v-.25H8.6v.25zm0 8.8v.25h.25v-.25H8.6zm-.8 0h-.25v.25h.25v-.25zm-1.6 4.4h-.25.25zm-.8 2v.25h.25v-.25H5.4zm-1.6 0h-.25v.25h.25v-.25zm0-1.6v-.25h-.25V15h.25zm1.6 0h.25v-.25H5.4V15zM11 .75H3v.5h8v-.5zm-8 0C1.76.75.75 1.76.75 3h.5c0-.965.785-1.75 1.75-1.75v-.5zM.75 3v14.4h.5V3h-.5zm0 14.4c0 1.24 1.01 2.25 2.25 2.25v-.5c-.965 0-1.75-.785-1.75-1.75h-.5zM3 19.65h7.2v-.5H3v.5zm7.45-.25v-.8h-.5v.8h.5zm-.25-1.05H3v.5h7.2v-.5zm-7.2 0a.952.952 0 01-.95-.95h-.5c0 .8.65 1.45 1.45 1.45v-.5zm-.95-.95V3h-.5v14.4h.5zm0-14.4c0-.523.426-.95.95-.95v-.5c-.8 0-1.45.65-1.45 1.45h.5zM3 2.05h8v-.5H3v.5zm8 0c.524 0 .95.427.95.95h.5c0-.8-.65-1.45-1.45-1.45v.5zm.95.95v11.6h.5V3h-.5zm.25 11.85h.8v-.5h-.8v.5zm1.05-.25V3h-.5v11.6h.5zm0-11.6c0-1.24-1.01-2.25-2.25-2.25v.5c.965 0 1.75.785 1.75 1.75h.5zm3.782 8.498l-3.924-4.904-.39.313 3.923 4.904.39-.313zm-4.276-4.943l-.625.5.312.39.626-.5-.313-.39zm-.664.852l3.924 4.903.39-.312-3.924-4.904-.39.313zm3.924 4.903a3.36 3.36 0 01.734 2.094h.5a3.86 3.86 0 00-.844-2.406l-.39.312zm.734 2.094V24.2h.5v-9.796h-.5zM17 23.95h-5.852v.5H17v-.5zm-5.852 0a3.502 3.502 0 01-3.498-3.498h-.5a4.002 4.002 0 003.998 3.998v-.5zM7.65 20.452V19h-.5v1.452h.5zM7.4 18.75h-.8v.5h.8v-.5zM6.35 19v1.452h.5V19h-.5zm0 1.452a4.803 4.803 0 004.798 4.798v-.5a4.303 4.303 0 01-4.298-4.298h-.5zm4.798 4.798H17.4v-.5h-6.252v.5zm6.252 0c.36 0 .65-.29.65-.65h-.5a.15.15 0 01-.15.15v.5zm.65-.65V14.404h-.5V24.6h.5zm0-10.196c0-1.052-.36-2.083-1.018-2.906l-.39.313a4.17 4.17 0 01.908 2.593h.5zm-10.259-3.72a.794.794 0 01.56.25l.364-.343a1.294 1.294 0 00-.91-.408l-.014.5zm.56.25l5.375 5.711.364-.342-5.375-5.712-.364.342zm5.729 5.722l.583-.548-.343-.364-.583.548.343.364zm.593-.902l-5.376-5.712-.364.343 5.376 5.712.364-.343zm-5.376-5.712a2.09 2.09 0 00-1.469-.658l-.014.5c.428.012.825.19 1.12.5l.363-.342zM7.83 9.384a2.067 2.067 0 00-1.5.569l.343.363c.308-.29.708-.447 1.14-.432l.017-.5zm-1.506.574l-.004.004-.012.012a2.907 2.907 0 00-.033.032l.371.335a.146.146 0 01-.005.006l-.001.001.003-.003.011-.01.013-.013.005-.005a.45.45 0 00.006-.006l-.354-.353zm-.04.04a2.095 2.095 0 00-.12 2.841l.382-.321c-.54-.644-.5-1.574.092-2.168l-.354-.353zm-.12 2.842l3.445 4.068.382-.323-3.445-4.068-.382.323zm3.386 3.907v1.237h.5v-1.238h-.5zm0 1.237a5.602 5.602 0 003.622 5.225l.175-.468a5.102 5.102 0 01-3.297-4.757h-.5zm3.944 5.079l.28-.75-.468-.175-.28.75.468.175zm.134-1.071a4.299 4.299 0 01-2.778-4.008h-.5a4.799 4.799 0 003.103 4.476l.175-.468zm-2.778-4.008V16.6h-.5v1.384h.5zm0-1.384a.652.652 0 00-.154-.42l-.382.323a.152.152 0 01.036.097h.5zm-.154-.42L7.157 12l-.381.324 3.539 4.179.381-.323zm-3.538-4.178a.807.807 0 01.065-1.105l-.353-.354c-.497.498-.535 1.257-.095 1.78l.383-.321zm.06-1.1a.82.82 0 01.579-.219l.003-.5a1.32 1.32 0 00-.925.355l.343.364zM9.8 2.05h.8v-.5h-.8v.5zm.55-.25v10h.5v-10h-.5zm.25 9.75h-.8v.5h.8v-.5zm-.55.25v-10h-.5v10h.5zM7.8 14.45h.8v-.5h-.8v.5zm.55-.25V19h.5v-4.8h-.5zm.25 4.55h-.8v.5h.8v-.5zm-.55.25v-4.8h-.5V19h.5zM7.8 1.65h.8v-.5h-.8v.5zm.55-.25v8.8h.5V1.4h-.5zm.25 8.55h-.8v.5h.8v-.5zm-.55.25V1.4h-.5v8.8h.5zM5.8 13.95H3.4v.5h2.4v-.5zm-2.4 0a.65.65 0 00-.65.65h.5a.15.15 0 01.15-.15v-.5zm-.65.65V17h.5v-2.4h-.5zm0 2.4c0 .36.291.65.65.65v-.5a.15.15 0 01-.15-.15h-.5zm.65.65h2.4v-.5H3.4v.5zm2.4 0a.65.65 0 00.65-.65h-.5a.15.15 0 01-.15.15v.5zm.65-.65v-2.4h-.5V17h.5zm0-2.4a.65.65 0 00-.65-.65v.5a.15.15 0 01.15.15h.5zM5.4 16.35H3.8v.5h1.6v-.5zm-1.35.25V15h-.5v1.6h.5zm-.25-1.35h1.6v-.5H3.8v.5zM5.15 15v1.6h.5V15h-.5z" fill="#29006C"/></svg>