<svg width="23" height="26" fill="none" xmlns="http://www.w3.org/2000/svg"><path fill-rule="evenodd" clip-rule="evenodd" d="M11.31 25.973l.062.015a.695.695 0 00.506-.1l10.698-6.048a.8.8 0 00.308-.317.953.953 0 00.114-.453V6.998C23 6.955 23 6.912 23 6.87a.997.997 0 00-.078-.326.867.867 0 00-.182-.267.756.756 0 00-.258-.168L11.838.09a.686.686 0 00-.676 0L.518 6.11a.8.8 0 00-.439.435.96.96 0 00-.077.439V19.07c0 .16.04.317.113.453a.8.8 0 00.308.317l10.697 6.045a.699.699 0 00.19.088zm.95-2.225l9.219-5.21V8.319l-9.22 5.192v10.237zm8.26-16.82l-9.02 5.075-9.02-5.075 9.02-5.107 9.021 5.107zm-19 1.39v10.22l9.22 5.212V13.51L1.52 8.318z" fill="#BFC0C4"/></svg>