<svg width="24" height="23" fill="none" xmlns="http://www.w3.org/2000/svg"><path d="M19.11 12.304h-8.164V4.139a.591.591 0 00-.594-.594C5.197 3.546 1 7.742 1 12.899c0 5.155 4.197 9.352 9.352 9.352 5.156 0 9.352-4.197 9.352-9.352a.597.597 0 00-.593-.594zm-8.758 8.758c-4.5 0-8.164-3.664-8.164-8.164 0-4.302 3.343-7.84 7.57-8.143v8.143c0 .33.264.594.594.594h8.143c-.304 4.227-3.84 7.57-8.143 7.57z" fill="#BFC0C4"/><path d="M22.996 9.571a9.367 9.367 0 00-2.34-6.158A9.358 9.358 0 0013.643.25a.591.591 0 00-.594.594v8.758c0 .33.264.594.593.594h8.759c.33 0 .594-.264.594-.594v-.03zm-8.759-.558V1.464a8.162 8.162 0 015.525 2.74 8.157 8.157 0 012.024 4.809h-7.549z" fill="#BFC0C4"/><path fill-rule="evenodd" clip-rule="evenodd" d="M12.8.844A.84.84 0 0113.643 0a9.608 9.608 0 017.2 3.247 9.618 9.618 0 012.403 6.323v.032a.842.842 0 01-.844.844h-8.759a.841.841 0 01-.843-.844V.844zM13.643.5a.341.341 0 00-.343.344v8.758c0 .192.152.344.343.344h8.759a.341.341 0 00.344-.344v-.029a9.118 9.118 0 00-2.278-5.995A9.108 9.108 0 0013.643.5zm.344.695l.268.02a8.412 8.412 0 015.695 2.824 8.407 8.407 0 012.085 4.955l.02.269h-8.068V1.195zm.5.543v7.025h7.025a7.903 7.903 0 00-1.937-4.393 7.914 7.914 0 00-5.088-2.632zM.75 12.898c0-5.294 4.309-9.602 9.602-9.602a.84.84 0 01.844.843v7.915h7.915c.463 0 .843.38.843.844 0 5.293-4.308 9.602-9.602 9.602C5.06 22.5.75 18.191.75 12.898zm9.602-9.102c-5.017 0-9.102 4.084-9.102 9.102C1.25 17.915 5.335 22 10.352 22c5.018 0 9.102-4.085 9.102-9.102a.347.347 0 00-.343-.344h-8.415V4.139a.341.341 0 00-.344-.344zm-.344.69v8.412c0 .192.152.344.344.344h8.411l-.019.267c-.313 4.358-3.957 7.803-8.392 7.803-4.638 0-8.414-3.776-8.414-8.414 0-4.434 3.445-8.08 7.802-8.392l.268-.02zm-.5.542c-3.97.421-7.07 3.79-7.07 7.87 0 4.362 3.552 7.914 7.914 7.914 4.08 0 7.449-3.1 7.87-7.07h-7.87a.841.841 0 01-.844-.844v-7.87z" fill="#BFC0C4"/></svg>