<svg width="21" height="24" fill="none" xmlns="http://www.w3.org/2000/svg"><path d="M18.922 1H2.302C1.584 1 1 1.584 1 2.302v19.396C1 22.416 1.584 23 2.302 23h16.62c.718 0 1.302-.584 1.302-1.302V2.302c0-.718-.584-1.302-1.302-1.302zM2.042 2.302a.26.26 0 01.26-.26h16.62a.26.26 0 01.26.26v4.516H2.043V2.302zM7.06 21.958H2.302a.26.26 0 01-.26-.26v-6.27H7.06v6.53zm0-7.571H2.04V7.86h5.02v6.527zm6.06 7.571H8.104v-6.53h5.019v6.53zm0-7.571H8.104V7.86h5.019v6.527zm6.062 7.31a.26.26 0 01-.26.261h-4.76V7.86h5.02v13.838z" fill="#BFC0C4"/><path d="M5.84 10.603h-.768v-.767a.52.52 0 10-1.042 0v.767h-.767a.52.52 0 100 1.042h.767v.767a.521.521 0 101.042 0v-.767h.767a.521.521 0 000-1.042zm6.086 0H9.298a.52.52 0 100 1.042h2.628a.521.521 0 000-1.042zm-6.638 8.092l.629-.63a.521.521 0 00-.737-.736l-.629.629-.629-.629a.521.521 0 00-.736.737l.628.629-.628.629a.521.521 0 00.736.736l.63-.628.628.628a.52.52 0 00.737 0 .521.521 0 000-.736l-.629-.63zm6.69-1.365a.521.521 0 00-.737 0l-1.995 1.994a.521.521 0 00.737.736l1.995-1.994a.521.521 0 000-.737zm-2.363.812a.444.444 0 100-.889.444.444 0 000 .89zm1.995 1.994a.444.444 0 100-.888.444.444 0 000 .888zm6.38-6.656h-2.664a.521.521 0 100 1.041h2.663a.521.521 0 000-1.042zm0 1.817h-2.664a.521.521 0 000 1.042h2.663a.521.521 0 000-1.042z" fill="#BFC0C4"/><path d="M20.224 2.302h.1-.1zm-1.041 4.516v.1h.1v-.1h-.1zm-17.141 0h-.1v.1h.1v-.1zm5.019 15.14v.1h.1v-.1h-.1zm-4.759 0v-.1.1zm-.26-6.53v-.1h-.1v.1h.1zm5.019 0h.1v-.1h-.1v.1zm0-1.041v.1h.1v-.1h-.1zm-5.02 0h-.1v.1h.1v-.1zm0-6.527v-.1h-.1v.1h.1zm5.02 0h.1v-.1h-.1v.1zm6.06 14.098v.1h.1v-.1h-.1zm-5.018 0h-.1v.1h.1v-.1zm0-6.53v-.1h-.1v.1h.1zm5.019 0h.1v-.1h-.1v.1zm0-1.041v.1h.1v-.1h-.1zm-5.02 0h-.1v.1h.1v-.1zm0-6.527v-.1h-.1v.1h.1zm5.02 0h.1v-.1h-.1v.1zm1.042 14.098h-.1v.1h.1v-.1zm0-14.098v-.1h-.1v.1h.1zm5.019 0h.1v-.1h-.1v.1zm-14.11 2.743h-.1v.1h.1v-.1zm-1.043 0v.1h.1v-.1h-.1zm0 1.042h.1v-.1h-.1v.1zm1.042 0v-.1h-.1v.1h.1zm.216 7.05l-.07-.07-.071.07.07.07.071-.07zm.629-.63l-.07-.07.07.07zm0-.736l.07-.07-.07.07zm-.737 0l-.07-.07.07.07zm-.629.629l-.07.07.07.071.07-.07-.07-.071zm-.629-.629l.071-.07-.07.07zm-.736 0l-.071-.07.07.07zm0 .737l-.071.07.07-.07zm.628.629l.071.07.07-.07-.07-.07-.07.07zm-.628.629l-.071-.071.07.07zm0 .736l-.071.071.07-.07zm.736 0l.071.071-.07-.07zm.63-.628l.07-.071-.07-.07-.071.07.07.07zm.628.628l-.07.071.07-.07zm.737-.736l-.07.07.07-.07zm6.06-1.995l.071-.07-.07.07zm-.736 0l-.07-.07.07.07zm-1.995 1.995l-.07-.071.07.07zm0 .736l-.07.071.07-.07zm.737 0l.07.071-.07-.07zm1.995-1.994l.07.07-.07-.07zM18.51 14h.1-.1zm0 1.818h.1-.1zM18.922.9H2.302v.2h16.62V.9zM2.302.9C1.53.9.9 1.529.9 2.302h.2c0-.663.54-1.202 1.202-1.202V.9zM.9 2.302v19.396h.2V2.302H.9zm0 19.396c0 .773.629 1.402 1.402 1.402v-.2c-.663 0-1.202-.54-1.202-1.202H.9zM2.302 23.1h16.62v-.2H2.302v.2zm16.62 0c.773 0 1.402-.63 1.402-1.402h-.2c0 .662-.539 1.202-1.202 1.202v.2zm1.402-1.402V2.302h-.2v19.396h.2zm0-19.396c0-.773-.629-1.402-1.402-1.402v.2c.663 0 1.202.54 1.202 1.202h.2zm-18.182 0a.16.16 0 01.16-.16v-.2a.36.36 0 00-.36.36h.2zm.16-.16h16.62v-.2H2.302v.2zm16.62 0a.16.16 0 01.16.16h.2a.36.36 0 00-.36-.36v.2zm.16.16v4.516h.2V2.302h-.2zm.1 4.416H2.043v.2h17.14v-.2zm-17.04.1V2.302h-.2v4.516h.2zm4.919 15.04H2.302v.2h4.759v-.2zm-4.759 0a.16.16 0 01-.16-.16h-.2c0 .198.162.36.36.36v-.2zm-.16-.16v-6.27h-.2v6.27h.2zm-.1-6.17H7.06v-.2H2.04v.2zm4.919-.1v6.53h.2v-6.53h-.2zm.1-1.141H2.04v.2h5.02v-.2zm-4.92.1V7.86h-.2v6.527h.2zm-.1-6.427h5.02v-.2H2.04v.2zm4.92-.1v6.527h.2V7.86h-.2zm6.16 13.998H8.104v.2h5.019v-.2zm-4.918.1v-6.53h-.2v6.53h.2zm-.1-6.43h5.019v-.2h-5.02v.2zm4.919-.1v6.53h.2v-6.53h-.2zm.1-1.141h-5.02v.2h5.02v-.2zm-4.92.1V7.86h-.2v6.527h.2zm-.1-6.427h5.02v-.2h-5.02v.2zm4.92-.1v6.527h.2V7.86h-.2zm6.06 13.838a.16.16 0 01-.16.16v.2a.36.36 0 00.36-.36h-.2zm-.16.16h-4.758v.2h4.758v-.2zm-4.659.1V7.86h-.2v14.098h.2zm-.1-13.998h5.02v-.2h-5.02v.2zm4.92-.1v13.838h.2V7.86h-.2zM5.838 10.503h-.767v.2h.767v-.2zm-.667.1v-.767h-.2v.767h.2zm0-.767a.62.62 0 00-.62-.621v.2a.42.42 0 01.42.42h.2zm-.62-.621a.62.62 0 00-.622.62h.2a.42.42 0 01.421-.42v-.2zm-.622.62v.768h.2v-.767h-.2zm.1.668h-.767v.2h.767v-.2zm-.767 0a.62.62 0 00-.62.62h.2a.42.42 0 01.42-.42v-.2zm-.62.62a.62.62 0 00.62.622v-.2a.421.421 0 01-.42-.421h-.2zm.62.622h.767v-.2h-.767v.2zm.667-.1v.767h.2v-.767h-.2zm0 .767c0 .342.278.62.621.62v-.2a.421.421 0 01-.42-.42h-.2zm.621.62a.62.62 0 00.621-.62h-.2a.421.421 0 01-.42.42v.2zm.621-.62v-.767h-.2v.767h.2zm-.1-.667h.767v-.2h-.767v.2zm.767 0a.621.621 0 00.621-.621h-.2a.421.421 0 01-.42.42v.2zm.621-.621a.62.62 0 00-.62-.621v.2a.42.42 0 01.42.42h.2zm5.466-.621H9.298v.2h2.628v-.2zm-2.628 0a.62.62 0 00-.62.62h.2a.42.42 0 01.42-.42v-.2zm-.62.62a.62.62 0 00.62.622v-.2a.421.421 0 01-.42-.421h-.2zm.62.622h2.628v-.2H9.298v.2zm2.628 0a.62.62 0 00.62-.621h-.2a.421.421 0 01-.42.42v.2zm.62-.621a.62.62 0 00-.62-.621v.2a.42.42 0 01.42.42h.2zM5.36 18.765l.629-.628-.142-.142-.629.63.142.14zm.629-.628a.621.621 0 000-.878l-.142.14a.421.421 0 010 .596l.142.142zm0-.879a.621.621 0 00-.879 0l.142.142a.421.421 0 01.595 0l.142-.142zm-.879 0l-.628.63.14.14.63-.628-.142-.142zm-.487.63l-.629-.63-.141.142.629.629.14-.142zm-.629-.63a.621.621 0 00-.878 0l.141.142a.421.421 0 01.596 0l.141-.142zm-.878 0a.621.621 0 000 .879l.141-.142a.421.421 0 010-.595l-.141-.142zm0 .879l.629.628.141-.14-.629-.63-.141.142zm.629.487l-.63.629.142.141.63-.628-.142-.142zm-.63.629a.621.621 0 000 .878l.142-.141a.42.42 0 010-.596l-.141-.141zm.001.878a.62.62 0 00.439.182v-.2a.42.42 0 01-.298-.123l-.141.141zm.439.182a.62.62 0 00.44-.182l-.142-.141a.42.42 0 01-.298.123v.2zm.44-.182l.628-.629-.141-.141-.63.629.142.141zm.487-.629l.628.63.142-.142-.63-.63-.14.142zm.628.63a.62.62 0 00.44.18v-.2a.42.42 0 01-.298-.122l-.142.141zm.44.18a.62.62 0 00.439-.18l-.142-.142a.42.42 0 01-.298.123v.2zm.439-.18a.621.621 0 000-.88l-.142.142a.42.42 0 010 .596l.142.141zm0-.88l-.63-.628-.14.142.628.628.142-.141zm6.06-1.993a.621.621 0 00-.878 0l.142.14a.421.421 0 01.595 0l.141-.14zm-.878 0l-1.994 1.994.141.141 1.995-1.994-.142-.141zm-1.994 1.994a.621.621 0 000 .878l.141-.141a.421.421 0 010-.596l-.141-.141zm0 .878a.62.62 0 00.439.182v-.2a.42.42 0 01-.298-.123l-.141.141zm.439.182a.62.62 0 00.439-.182l-.142-.141a.42.42 0 01-.297.123v.2zm.439-.182l1.994-1.994-.141-.142-1.995 1.995.142.141zm1.994-1.994a.621.621 0 000-.878l-.141.14a.421.421 0 010 .596l.141.142zm-2.089-.44c0 .19-.154.345-.344.345v.2c.3 0 .544-.244.544-.544h-.2zm-.344.345a.344.344 0 01-.345-.344h-.2c0 .3.244.544.545.544v-.2zm-.345-.344c0-.19.154-.345.345-.345v-.2a.545.545 0 00-.545.545h.2zm.345-.345c.19 0 .344.154.344.345h.2a.545.545 0 00-.544-.545v.2zm2.339 2.339c0 .19-.154.344-.345.344v.2a.545.545 0 00.545-.544h-.2zm-.345.344a.344.344 0 01-.344-.344h-.2c0 .3.244.544.544.544v-.2zm-.344-.344c0-.19.154-.344.344-.344v-.2c-.3 0-.544.243-.544.544h.2zm.344-.344c.19 0 .345.154.345.344h.2c0-.3-.244-.544-.545-.544v.2zm6.38-5.969h-2.663v.2h2.663v-.2zm-2.663 0a.621.621 0 00-.62.621h.2a.42.42 0 01.42-.42v-.2zm-.62.621a.62.62 0 00.62.621v-.2a.421.421 0 01-.42-.42h-.2zm.62.621h2.663v-.2h-2.663v.2zm2.663 0a.621.621 0 00.621-.62h-.2a.42.42 0 01-.42.42v.2zm.621-.62a.621.621 0 00-.62-.622v.2a.42.42 0 01.42.421h.2zm-.62 1.196h-2.664v.2h2.663v-.2zm-2.664 0a.621.621 0 00-.62.621h.2a.42.42 0 01.42-.42v-.2zm-.62.621a.62.62 0 00.62.621v-.2a.421.421 0 01-.42-.42h-.2zm.62.621h2.663v-.2h-2.663v.2zm2.663 0a.621.621 0 00.621-.62h-.2a.421.421 0 01-.42.42v.2zm.621-.62a.62.62 0 00-.62-.622v.2a.42.42 0 01.42.421h.2z" fill="#BFC0C4"/></svg>