<svg width="24" height="16" fill="none" xmlns="http://www.w3.org/2000/svg"><path d="M21.499 6.277a5.138 5.138 0 00-3.659-1.5c-.164 0-.328 0-.492.023a6.512 6.512 0 00-2.205-2.627A6.514 6.514 0 0011.413 1a6.597 6.597 0 00-4.268 1.571 6.555 6.555 0 00-2.11 3.495 4.504 4.504 0 00-2.698 1.29A4.518 4.518 0 001 10.57a4.56 4.56 0 001.337 3.213 4.597 4.597 0 003.213 1.314h12.29a5.24 5.24 0 003.659-1.501A5.138 5.138 0 0023 9.936a5.24 5.24 0 00-1.501-3.659zm-.938 6.427a3.917 3.917 0 01-2.791 1.149H5.55a3.254 3.254 0 01-2.345-.985 3.298 3.298 0 01-.985-2.346c0-.89.375-1.712.961-2.322.61-.61 1.43-.985 2.346-.985a.473.473 0 00.258-.07h.023a.575.575 0 00.258-.422 5.218 5.218 0 011.806-3.237 5.369 5.369 0 013.471-1.29c1.126 0 2.181.352 3.05.962a5.269 5.269 0 011.688 1.9c-.14.046-.281.117-.422.164a5.168 5.168 0 00-1.736 1.29.617.617 0 00.047.844.616.616 0 00.845-.047c.375-.422.82-.75 1.336-.985a3.79 3.79 0 011.619-.352c1.102 0 2.087.446 2.79 1.15a3.918 3.918 0 011.15 2.79 3.933 3.933 0 01-1.15 2.792z" fill="#BFC0C4" stroke="#BFC0C4" stroke-width=".6"/></svg>