<svg width="18" height="23" fill="none" xmlns="http://www.w3.org/2000/svg"><path d="M17.127 5.969h-13.4a2.26 2.26 0 01-2.256-2.257 2.26 2.26 0 012.257-2.257H17.13a.602.602 0 100-1.205H3.728A3.467 3.467 0 00.266 3.712v15.076a3.468 3.468 0 003.462 3.462H17.13a.602.602 0 00.603-.603V6.571a.61.61 0 00-.607-.602zm-.603 15.076H3.728a2.26 2.26 0 01-2.257-2.257V6.34a3.456 3.456 0 002.257.839h12.796v13.866z" fill="#BFC0C4" stroke="#BFC0C4" stroke-width=".5"/><path d="M3.918 3.164a.602.602 0 100 1.205h11.32a.602.602 0 100-1.205H3.918zm2.121 15.243a.6.6 0 00.77-.363l.734-2.052h2.828c.022 0 .05 0 .072-.005l.734 2.058a.603.603 0 00.77.362.602.602 0 00.363-.77L9.564 9.938c-.005-.018-.014-.036-.023-.054l-.013-.027-.014-.028c-.004-.009-.013-.018-.018-.031l-.014-.018c-.004-.01-.013-.019-.022-.028-.005-.004-.01-.013-.018-.018-.005-.009-.014-.013-.023-.022a48.4 48.4 0 01-.023-.023c-.004-.005-.013-.01-.018-.018-.009-.01-.018-.014-.027-.023-.005-.004-.014-.009-.018-.014-.01-.004-.018-.013-.027-.018l-.028-.013-.027-.014a.278.278 0 00-.054-.022h-.005l-.054-.014c-.01 0-.014-.005-.023-.005-.013-.004-.022-.004-.036-.009-.009 0-.018 0-.027-.004-.01 0-.023-.005-.032-.005h-.059c-.009 0-.022 0-.031.005-.01 0-.019 0-.028.004-.013 0-.022.005-.036.01-.009 0-.013.004-.023.004a.44.44 0 00-.05.014H8.79c-.018.004-.036.013-.054.022l-.027.014-.028.013c-.009.005-.018.014-.031.018l-.018.014c-.01.01-.019.014-.028.023-.004.004-.013.009-.018.018a48.4 48.4 0 01-.045.045c-.005.005-.01.014-.018.018-.01.01-.014.018-.023.027-.004.005-.009.014-.014.019-.004.009-.013.018-.018.027l-.013.027-.014.027a.234.234 0 00-.022.055l-2.756 7.698c-.1.318.064.662.377.775zm2.959-6.475l1.02 2.855H7.972l1.025-2.855z" fill="#BFC0C4" stroke="#BFC0C4" stroke-width=".5"/></svg>