<svg width="18" height="22" fill="none" xmlns="http://www.w3.org/2000/svg"><path d="M16.769 20.85c-1-2.075-2.798-3.705-4.978-4.527V15.01c1.072-.059 3.093-.331 4.278-1.544a.61.61 0 00-.273-1.017c-.017-.005-1.58-.54-1.266-3.738.136-1.362.113-2.589-.064-3.642-.204-1.208-.613-2.158-1.208-2.82-.645-.714-1.485-1.077-2.498-1.077h-.118C10.256.836 9.412.268 8.117.268a5.2 5.2 0 00-1.88.373L6.21.65c-.51.19-1.454.55-2.253 1.612-.931 1.235-1.376 3.066-1.322 5.436.055 2.375-.336 3.538-.672 4.097-.277.459-.54.55-.608.568-.232-.019-.418.1-.536.3-.123.204-.077.463.059.662.054.082.372.509 1.14.922.876.473 1.97.74 3.265.795v1.249a9.13 9.13 0 00-4.955 4.564.62.62 0 00.032.59.618.618 0 00.518.287h15.341a.612.612 0 00.55-.881zM1.922 20.5a7.862 7.862 0 014.156-3.196.613.613 0 00.427-.582v-2.284a.604.604 0 00-.182-.436.607.607 0 00-.436-.177c-1.766.018-2.834-.386-3.415-.731.04-.041.086-.082.132-.127.894-.931 1.317-2.712 1.258-5.296-.118-4.773 1.912-5.545 2.775-5.872l.027-.01c.508-.19.994-.29 1.444-.29 1.172 0 1.771.645 1.821.704a.597.597 0 00.527.218c.1-.01.2-.014.295-.014.659 0 1.181.218 1.59.673.863.953 1.217 2.965.963 5.518-.255 2.575.55 3.864 1.244 4.491-.936.518-2.266.713-3.27.713h-.09a.611.611 0 00-.631.613v2.348c-.001.268.171.5.426.582a7.937 7.937 0 014.178 3.165H1.922v-.01z" fill="#BFC0C4"/><path fill-rule="evenodd" clip-rule="evenodd" d="M6.146.388A5.468 5.468 0 018.117 0c1.298 0 2.176.537 2.623.904h.02c1.084 0 1.999.392 2.697 1.164.64.713 1.064 1.715 1.274 2.956.182 1.082.204 2.333.066 3.713-.152 1.554.154 2.421.466 2.892.265.4.546.533.597.556.01.005.01.006.002.003l.008.002a.88.88 0 01.392 1.463c-.638.652-1.489 1.041-2.3 1.275a9.657 9.657 0 01-1.902.333v.878c2.164.866 3.947 2.512 4.95 4.595l.001.001a.9.9 0 01-.044.849l-.002.002a.88.88 0 01-.746.414H.878a.886.886 0 01-.744-.41l-.002-.004a.888.888 0 01-.046-.846v-.001a9.403 9.403 0 014.929-4.631v-.812c-1.214-.079-2.264-.349-3.124-.813-.807-.434-1.157-.89-1.236-1.008-.173-.255-.26-.628-.067-.95.151-.255.405-.436.727-.433a.518.518 0 00.104-.062 1.3 1.3 0 00.315-.374c.3-.498.687-1.603.633-3.952-.055-2.4.393-4.3 1.376-5.603M6.146.388l-.021.007-.01.004C5.595.594 4.59.975 3.743 2.1M8.117.537c-.567 0-1.166.115-1.783.354l-.012.005-.023.007c-.498.186-1.378.524-2.128 1.52-.88 1.168-1.321 2.928-1.267 5.27.055 2.4-.338 3.62-.71 4.24-.313.517-.634.652-.77.689l-.045.011-.045-.003c-.112-.009-.208.04-.284.169l-.001.001c-.052.086-.048.23.05.374l.002.002c.032.048.318.444 1.044.835.832.448 1.884.71 3.15.763l.256.01v1.692l-.173.066A8.861 8.861 0 00.57 20.97a.351.351 0 00.017.332c.066.1.176.16.29.16H16.22c.118 0 .23-.062.289-.157a.36.36 0 00.019-.34c-.969-2.011-2.714-3.594-4.83-4.392l-.174-.066v-1.752l.254-.014a9.381 9.381 0 002.036-.33c.764-.22 1.516-.573 2.064-1.133a.343.343 0 00-.153-.572c-.093-.027-.53-.209-.909-.782-.396-.598-.713-1.597-.552-3.24.134-1.345.11-2.547-.061-3.572-.2-1.175-.593-2.071-1.143-2.685-.591-.654-1.358-.988-2.299-.988h-.218l-.076-.066c-.354-.308-1.138-.837-2.349-.837zm-.009 1.23c-.41 0-.864.092-1.35.274l-.01.003-.021.008c-.422.16-1.078.412-1.628 1.173-.555.767-1.027 2.089-.97 4.44.058 2.487-.324 4.318-1.215 5.359.584.275 1.53.547 2.968.533a.876.876 0 01.627.252.872.872 0 01.264.629v2.284c0 .381-.249.72-.613.837a7.579 7.579 0 00-3.73 2.683h12.212A7.685 7.685 0 0010.9 17.6a.877.877 0 01-.612-.837v-2.348a.88.88 0 01.903-.881h.004l-.008.268v-.268h.09c.868 0 1.968-.15 2.818-.521.09.102.182.193.273.275l.18-.199-.13-.235c-.102.057-.21.11-.323.159-.674-.76-1.289-2.107-1.058-4.442.125-1.258.1-2.374-.06-3.286-.16-.916-.451-1.601-.835-2.025-.353-.392-.8-.584-1.39-.584-.088 0-.18.004-.272.012a.866.866 0 01-.757-.313l.001.001.205-.173-.21.168.004.004-.006-.007a1.352 1.352 0 00-.102-.095 1.95 1.95 0 00-.306-.21 2.438 2.438 0 00-1.201-.296zM2.412 12.78c.813-.848 1.24-2.529 1.181-5.102-.06-2.422.425-3.873 1.07-4.767.65-.896 1.436-1.194 1.877-1.362l.012-.004.022-.007c.53-.198 1.047-.306 1.534-.306 1.278 0 1.945.703 2.026.799l.005.005c.067.084.172.13.293.119.108-.01.216-.015.32-.015.726 0 1.323.245 1.788.76.479.53.796 1.327.965 2.294.17.97.194 2.137.066 3.43-.248 2.503.533 3.705 1.157 4.267l.279.252-.33.182c-.991.549-2.374.746-3.399.746h-.098a.343.343 0 00-.356.345v2.348c0 .15.095.28.24.326a8.206 8.206 0 014.321 3.273l.274.416H1.654v-.357l.044-.066a8.13 8.13 0 014.298-3.307.346.346 0 00.24-.326v-2.284a.336.336 0 00-.099-.243.34.34 0 00-.242-.102H5.89c-1.81.019-2.927-.396-3.555-.769l-.297-.176.244-.244a3.48 3.48 0 01.067-.064l.002-.003.061-.058z" fill="#BFC0C4"/></svg>