<svg width="22" height="22" fill="none" xmlns="http://www.w3.org/2000/svg"><circle cx="11" cy="11" r="10.15" stroke="#BFC0C4" stroke-width="1.7"/><path d="M8.156 16.762a.366.366 0 01-.258-.099.437.437 0 01-.092-.28v-2.107h-1.17a.367.367 0 01-.26-.099.437.437 0 01-.09-.28v-.378c0-.11.03-.198.091-.264a.339.339 0 01.258-.115h1.171v-.938h-1.17a.367.367 0 01-.26-.099.437.437 0 01-.09-.28v-.56c0-.11.03-.197.091-.263a.339.339 0 01.258-.115h1.171V5.633c0-.12.03-.214.092-.28a.339.339 0 01.258-.115h3.863c1.146 0 2.048.302 2.707.906.659.603.988 1.476.988 2.617 0 1.12-.33 1.976-.988 2.568-.65.582-1.551.873-2.707.873H9.327v.938h2.935c.102 0 .183.038.243.115a.342.342 0 01.107.264v.378c0 .11-.036.204-.107.28a.315.315 0 01-.243.1H9.327v2.106c0 .11-.035.203-.106.28a.366.366 0 01-.259.099h-.806zm3.787-5.877c.74 0 1.298-.181 1.673-.543.385-.363.578-.89.578-1.58 0-.692-.188-1.22-.563-1.581-.375-.373-.938-.56-1.688-.56H9.312v4.264h2.63z" fill="#BFC0C4"/></svg>