<svg width="25" height="22" fill="none" xmlns="http://www.w3.org/2000/svg"><path d="M5.895 10.21H.79A.79.79 0 000 11v10.21c0 .436.354.79.79.79h5.105a.79.79 0 00.79-.79V11a.79.79 0 00-.79-.79zm-.79 10.21H1.58v-8.63h3.524v8.63zM14.672 0H9.568a.79.79 0 00-.79.79v20.42c0 .436.353.79.79.79h5.104a.79.79 0 00.79-.79V.79a.79.79 0 00-.79-.79zm-.79 20.42h-3.524V1.58h3.524v18.84zM23.45 5.105h-5.105a.79.79 0 00-.79.79V21.21a.79.79 0 00.79.791h5.105a.79.79 0 00.79-.79V5.894a.79.79 0 00-.79-.79zm-.79 15.314h-3.525V6.686h3.524v13.733z" fill="#BFC0C4"/></svg>