<svg width="24" height="24" fill="none" xmlns="http://www.w3.org/2000/svg"><path fill-rule="evenodd" clip-rule="evenodd" d="M2 1a1 1 0 00-1 1v8a1 1 0 001 1h8a1 1 0 001-1V6.75h8a.25.25 0 01.25.25v4.76l-.97-.93a.74.74 0 00-1.06 0 .775.775 0 000 1.081l2.03 2.256V17a.25.25 0 01-.25.25h-8.056a5.001 5.001 0 100 1.5H19A1.75 1.75 0 0020.75 17v-2.833l2.03-2.256a.775.775 0 000-1.08.74.74 0 00-1.06 0l-.97.987V7A1.75 1.75 0 0019 5.25h-8V2a1 1 0 00-1-1H2zm.5 1.5v7h7v-7h-7zm7 15.5a3.5 3.5 0 11-7 0 3.5 3.5 0 017 0z" fill="#BFC0C4" stroke="#BFC0C4" stroke-width=".3"/></svg>