<svg width="23" height="21" fill="none" xmlns="http://www.w3.org/2000/svg"><path d="M8.416 14.595a.585.585 0 00-.822.118 5.09 5.09 0 01-4.094 2.04H.832a.585.585 0 00-.588.588c0 .326.261.587.588.587h2.672c1.005 0 1.967-.23 2.854-.683a6.297 6.297 0 002.175-1.827.59.59 0 00-.117-.822z" fill="#BFC0C4"/><path fill-rule="evenodd" clip-rule="evenodd" d="M7.398 14.566a.83.83 0 011.165-.166c.37.278.437.801.166 1.164a6.544 6.544 0 01-2.26 1.899c-.922.47-1.922.71-2.965.71H.832A.83.83 0 010 17.34a.83.83 0 01.832-.832H3.5a4.844 4.844 0 003.898-1.943zm.871.225a.34.34 0 00-.48.068 5.335 5.335 0 01-4.29 2.138H.833a.34.34 0 00-.344.344.34.34 0 00.344.343h2.672c.967 0 1.89-.222 2.743-.657a6.055 6.055 0 002.09-1.755.345.345 0 00-.068-.481z" fill="#BFC0C4"/><path d="M12.027 6.338a.592.592 0 00.827-.104A5.088 5.088 0 0116.9 4.25h3.415l-1.823 1.823c-.23.23-.23.6 0 .83a.591.591 0 00.413.175c.148 0 .3-.057.414-.174l2.828-2.828c.23-.23.23-.6 0-.831L19.319.417a.585.585 0 00-.831 0c-.23.23-.23.6 0 .831l1.823 1.823h-3.416a6.258 6.258 0 00-4.977 2.44.597.597 0 00.11.827z" fill="#BFC0C4"/><path fill-rule="evenodd" clip-rule="evenodd" d="M18.315.244a.83.83 0 011.176 0l2.828 2.828a.83.83 0 010 1.177l-2.826 2.826a.817.817 0 01-.588.247.835.835 0 01-.586-1.422l1.406-1.406H16.9c-1.517 0-2.92.687-3.853 1.89l-.002.002a.84.84 0 01-1.166.147l-.002-.002a.841.841 0 01-.155-1.164l.003-.005a6.502 6.502 0 015.17-2.535h2.826L18.315 1.42a.83.83 0 010-1.177zm.831.346a.341.341 0 00-.486 0 .341.341 0 000 .485l2.24 2.24h-4.005a6.014 6.014 0 00-4.781 2.343.353.353 0 00.062.487.349.349 0 00.486-.062A5.332 5.332 0 0116.9 4.006h4.004l-2.24 2.24a.341.341 0 000 .485.347.347 0 00.241.103.329.329 0 00.238-.1l.003-.003 2.828-2.828a.341.341 0 000-.485L19.146.59z" fill="#BFC0C4"/><path d="M18.346 14.1a.585.585 0 00-.83 0 .584.584 0 000 .83l1.822 1.823h-3.415a5.126 5.126 0 01-5.12-5.12V9.37a6.302 6.302 0 00-6.296-6.295H.857a.585.585 0 00-.587.588c0 .326.261.587.588.587h3.649a5.126 5.126 0 015.12 5.12v2.263a6.302 6.302 0 006.296 6.295h3.415l-1.823 1.823c-.23.23-.23.6 0 .83a.591.591 0 00.413.175c.148 0 .3-.057.414-.174l2.828-2.828c.23-.23.23-.6 0-.831L18.346 14.1z" fill="#BFC0C4"/><path fill-rule="evenodd" clip-rule="evenodd" d="M.026 3.663a.83.83 0 01.832-.832h3.649a6.546 6.546 0 016.54 6.54v2.262a4.882 4.882 0 004.876 4.876h2.825l-1.406-1.406a.83.83 0 010-1.176.83.83 0 011.177 0l2.823 2.823a.83.83 0 010 1.177l-2.826 2.826a.817.817 0 01-.588.247.836.836 0 01-.586-.245.83.83 0 010-1.177l1.406-1.406h-2.825a6.546 6.546 0 01-6.54-6.54V9.37a4.882 4.882 0 00-4.876-4.876H.857a.83.83 0 01-.831-.831zm.832-.344a.34.34 0 00-.344.344.34.34 0 00.344.343h3.649A5.37 5.37 0 019.872 9.37v2.263a6.057 6.057 0 006.05 6.05h4.005l-2.24 2.24a.341.341 0 000 .486.347.347 0 00.241.103.33.33 0 00.238-.1l.003-.003 2.828-2.828a.341.341 0 000-.485l-2.824-2.824a.341.341 0 00-.485 0 .341.341 0 000 .486l2.24 2.24h-4.005a5.37 5.37 0 01-5.365-5.365V9.37a6.057 6.057 0 00-6.051-6.05H.857z" fill="#BFC0C4"/></svg>