<svg width="20" height="24" fill="none" xmlns="http://www.w3.org/2000/svg"><path d="M18.374 6.719H4.567c-1.28 0-2.325-1.01-2.325-2.257 0-1.242 1.041-2.257 2.325-2.257H18.38a.612.612 0 00.62-.602.612.612 0 00-.621-.603H4.567C2.602 1 1 2.554 1 4.462v15.076C1 21.446 2.602 23 4.567 23H18.38a.612.612 0 00.621-.603V7.321a.619.619 0 00-.626-.602zm-.62 15.076H4.566c-1.28 0-2.325-1.01-2.325-2.257V7.09a3.625 3.625 0 002.325.839h13.186v13.866z" fill="#BFC0C4" stroke="#BFC0C4" stroke-width=".5"/><path d="M4.764 3.914a.612.612 0 00-.621.602c0 .331.28.603.62.603h11.664a.612.612 0 00.621-.603c0-.33-.28-.602-.62-.602H4.763z" fill="#BFC0C4" stroke="#BFC0C4" stroke-width=".5"/></svg>