<svg width="24" height="21" fill="none" xmlns="http://www.w3.org/2000/svg"><path d="M15.08 7.35a3.166 3.166 0 100-6.334 3.166 3.166 0 000 6.333zm-3.693 3.165h.951a3.426 3.426 0 00-3.331-2.64H4.434a3.434 3.434 0 000 6.867H7.16a4.227 4.227 0 014.227-4.227v0zM6.72 5.589a2.294 2.294 0 10-2.286-2.287A2.286 2.286 0 006.72 5.59v0z" stroke="#BFC0C4" stroke-width="1.8" stroke-linecap="round" stroke-linejoin="round"/><path d="M18.773 10.515h-7.386a4.227 4.227 0 00-4.227 4.227v1.053a4.227 4.227 0 004.227 4.227h7.386A4.227 4.227 0 0023 15.795v-1.053a4.227 4.227 0 00-4.227-4.227z" stroke="#BFC0C4" stroke-width="1.8" stroke-linecap="round" stroke-linejoin="round"/></svg>