<svg width="23" height="23" fill="none" xmlns="http://www.w3.org/2000/svg"><path d="M22.241 19.216v0-4.944a.804.804 0 00-.801-.808.804.804 0 00-.802.807v4.944a1.415 1.415 0 01-1.405 1.421H3.758a1.415 1.415 0 01-1.405-1.42s0 0 0 0V4.705s0 0 0 0a1.414 1.414 0 011.405-1.421s0 0 0 0h4.897a.804.804 0 00.801-.807.804.804 0 00-.801-.807H3.758h0C2.094 1.673.751 3.032.75 4.705v14.511c.002 1.672 1.345 3.032 3.007 3.034h15.477c1.662-.002 3.005-1.361 3.007-3.034z" fill="#BFC0C4" stroke="#BFC0C4" stroke-width=".5"/><path d="M10.58 9.916l8.054-8.13 2.597 2.621-8.053 8.131-2.597-2.622zm-1.313 3.949l2.87-.803-2.075-2.095-.795 2.898zM21.95.407a1.371 1.371 0 00-1.95 0l-.585.59 2.597 2.623.585-.59a1.403 1.403 0 000-1.97l-.648-.653z" fill="#BFC0C4"/></svg>