<svg width="24" height="24" fill="none" xmlns="http://www.w3.org/2000/svg"><path fill-rule="evenodd" clip-rule="evenodd" d="M5.096.85a.795.795 0 00-.794.795c0 .265.004.53.011.793H1.645a.794.794 0 00-.795.794c0 2.913.76 5.668 2.15 7.756 1.36 2.044 3.18 3.243 5.165 3.38.416.447.856.818 1.315 1.11v2.631h-.932c-1.39 0-2.52 1.13-2.52 2.52v.939a.795.795 0 00.104 1.582h11.736a.794.794 0 00.104-1.582v-.938c0-1.39-1.13-2.52-2.52-2.52h-.931v-2.632a6.789 6.789 0 001.315-1.11c1.984-.137 3.804-1.336 5.164-3.38 1.39-2.088 2.15-4.843 2.15-7.756a.794.794 0 00-.794-.794h-2.669c.007-.263.011-.528.011-.793a.795.795 0 00-.794-.795H5.096zM7.83 11.053C6.675 8.744 5.997 5.71 5.902 2.439h12.196c-.095 3.272-.773 6.305-1.927 8.614-.389.777-.813 1.435-1.26 1.968a.784.784 0 00-.092.106c-.45.515-.92.902-1.403 1.159a2.965 2.965 0 01-1.416.372 2.969 2.969 0 01-1.416-.373c-.482-.256-.954-.643-1.404-1.158a.797.797 0 00-.09-.105c-.448-.534-.872-1.192-1.26-1.97zm-3.506-.945C3.235 8.472 2.582 6.338 2.46 4.027H4.4c.245 2.904.934 5.591 2.007 7.736.1.202.204.397.31.586-.88-.439-1.699-1.195-2.395-2.241zm13.27 1.655c1.072-2.145 1.761-4.832 2.006-7.736h1.941c-.122 2.31-.775 4.445-1.863 6.08-.696 1.047-1.516 1.803-2.395 2.242a13.7 13.7 0 00.31-.586zm-6.524 6.346v-1.964a4.357 4.357 0 001.862 0v1.964H11.07zm-3.452 2.52c0-.513.418-.93.931-.93h6.904c.513 0 .931.417.931.93v.932H7.617v-.931z" fill="#BFC0C4"/></svg>