<svg width="20" height="23" fill="none" xmlns="http://www.w3.org/2000/svg"><path d="M10.192 10.154a4 4 0 011.524.282c.472.188.873.453 1.204.795.342.33.608.73.797 1.2.189.46.283.966.283 1.52 0 .553-.1 1.065-.301 1.536-.2.471-.484.883-.85 1.236-.354.342-.78.613-1.275.813-.496.2-1.045.3-1.647.3a4.22 4.22 0 01-1.523-.265 4.284 4.284 0 01-1.204-.689 3.619 3.619 0 01-.828-1.067c-.287-.58.226-1.158.875-1.158h.446c.268 0 .5.196.64.424.094.141.218.277.372.406.153.118.33.218.531.3.213.07.443.106.69.106.58 0 1.046-.176 1.4-.53.366-.364.549-.835.549-1.412s-.183-1.042-.55-1.396c-.353-.365-.82-.547-1.398-.547-.319 0-.59.065-.815.194a2.258 2.258 0 00-.549.389l-.026.026c-.283.292-.638.539-1.045.539a1.072 1.072 0 01-1.067-1.186l.442-4.076a1.428 1.428 0 011.42-1.273h3.898a1.017 1.017 0 110 2.031H9.437a.753.753 0 00-.747.654l-.18 1.377c.154-.094.325-.182.514-.264.153-.06.33-.118.53-.177a2.26 2.26 0 01.638-.088z" fill="#BFC0C4"/><path fill-rule="evenodd" clip-rule="evenodd" d="M17.248.882a2.781 2.781 0 012.751 2.647l.001.013V20.37c0 1.482-1.342 2.512-2.755 2.512H2.755C1.342 22.882 0 21.852 0 20.37V3.528A2.781 2.781 0 012.752.882h14.496zm1.011 2.673v16.824a.677.677 0 01-.293.538 1.22 1.22 0 01-.721.23H2.755c-.268 0-.531-.086-.721-.23-.186-.14-.294-.327-.294-.547V3.555c.053-.524.49-.926 1.018-.937h14.484c.528.01.965.413 1.017.937z" fill="#BFC0C4"/></svg>