<svg width="21" height="22" fill="none" xmlns="http://www.w3.org/2000/svg"><path d="M20.942 3.205c0-1.086-1.122-1.895-3.43-2.472C15.621.26 13.12 0 10.47 0 7.82 0 5.32.26 3.43.733 1.122 1.31 0 2.119 0 3.205c0 .402.154.766.465 1.094l7.126 8.644v8.274a.783.783 0 001.131.702l4.185-2.075a.783.783 0 00.435-.7l.008-6.2 7.128-8.645c.31-.328.464-.692.464-1.094zM4.164 2.17c1.726-.389 3.966-.603 6.307-.603s4.582.214 6.307.603c1.906.428 2.442.89 2.57 1.036-.128.147-.664.608-2.57 1.037-1.725.388-3.966.602-6.307.602S5.89 4.63 4.164 4.242c-1.906-.43-2.442-.89-2.57-1.037.128-.147.664-.608 2.57-1.036zm7.8 9.995a.783.783 0 00-.18.497l-.007 5.995-2.62 1.299v-7.293a.783.783 0 00-.178-.498l-5.3-6.427c1.859.434 4.256.673 6.792.673 2.536 0 4.933-.239 6.791-.673l-5.299 6.427z" fill="#29006C"/></svg>