<svg width="23" height="23" fill="none" xmlns="http://www.w3.org/2000/svg"><path d="M20.925 9.296l-1.474-.25a8.318 8.318 0 00-.592-1.43l.869-1.216a1.293 1.293 0 00-.14-1.671L18.28 3.422a1.288 1.288 0 00-1.667-.14l-1.22.868a8.237 8.237 0 00-1.482-.61l-.246-1.456A1.296 1.296 0 0012.384 1h-1.847c-.636 0-1.176.456-1.28 1.084l-.255 1.491c-.492.154-.97.355-1.426.601L6.37 3.307a1.288 1.288 0 00-.755-.24 1.28 1.28 0 00-.917.38L3.386 4.756a1.299 1.299 0 00-.14 1.672l.877 1.232a8.13 8.13 0 00-.583 1.435l-1.456.245A1.296 1.296 0 001 10.62v1.847c0 .636.456 1.176 1.084 1.281l1.491.255c.154.491.355.97.601 1.425l-.864 1.203a1.293 1.293 0 00.14 1.67L4.76 19.61a1.288 1.288 0 001.667.14l1.232-.877a8.22 8.22 0 001.387.57l.245 1.474A1.296 1.296 0 0010.572 22h1.851c.636 0 1.176-.456 1.281-1.084l.25-1.474a8.32 8.32 0 001.43-.592l1.216.869c.22.158.482.241.754.241.347 0 .672-.136.917-.382l1.307-1.307a1.299 1.299 0 00.14-1.671l-.868-1.22c.241-.46.443-.939.592-1.43l1.474-.246A1.296 1.296 0 0022 12.424v-1.847a1.28 1.28 0 00-1.075-1.281zm-.1 3.127c0 .057-.04.106-.097.114l-1.843.308a.59.59 0 00-.474.434 7.022 7.022 0 01-.763 1.838.593.593 0 00.026.645l1.084 1.526a.12.12 0 01-.013.15l-1.307 1.307a.111.111 0 01-.084.035.107.107 0 01-.066-.022l-1.522-1.084a.593.593 0 00-.645-.026 7.023 7.023 0 01-1.838.764.582.582 0 00-.434.473l-.312 1.843a.114.114 0 01-.114.096h-1.846a.114.114 0 01-.114-.096l-.308-1.843a.59.59 0 00-.434-.474 7.289 7.289 0 01-1.798-.737.608.608 0 00-.299-.078.578.578 0 00-.342.11l-1.535 1.092a.131.131 0 01-.066.022.118.118 0 01-.084-.036L4.29 17.477a.119.119 0 01-.013-.149l1.08-1.513a.6.6 0 00.025-.65 6.957 6.957 0 01-.772-1.833.6.6 0 00-.473-.435l-1.856-.316a.114.114 0 01-.097-.114V10.62c0-.057.04-.105.097-.114l1.83-.307a.593.593 0 00.477-.438 7.015 7.015 0 01.75-1.843.586.586 0 00-.03-.64L4.216 5.742a.12.12 0 01.013-.149l1.307-1.307a.111.111 0 01.083-.035.1.1 0 01.066.022L7.2 5.352a.6.6 0 00.649.026 6.956 6.956 0 011.834-.772.6.6 0 00.434-.474l.316-1.855a.114.114 0 01.114-.097h1.847c.057 0 .105.04.114.097l.307 1.829c.04.232.21.421.439.478a7.12 7.12 0 011.881.772c.202.119.452.11.645-.026l1.514-1.088a.13.13 0 01.066-.022c.017 0 .052.004.083.035l1.307 1.307a.12.12 0 01.014.15L17.68 7.234a.593.593 0 00-.026.645c.342.574.596 1.193.763 1.838a.582.582 0 00.474.434l1.842.312a.114.114 0 01.097.114v1.846h-.005z" fill="#BFC0C4" stroke="#BFC0C4" stroke-width=".5"/><path d="M11.5 6.965a4.535 4.535 0 00-4.531 4.532c0 2.5 2.03 4.531 4.531 4.531 2.5 0 4.532-2.03 4.532-4.531 0-2.5-2.031-4.532-4.532-4.532zm0 7.879a3.35 3.35 0 01-3.347-3.347A3.35 3.35 0 0111.5 8.15a3.35 3.35 0 013.348 3.347 3.35 3.35 0 01-3.348 3.347z" fill="#BFC0C4" stroke="#BFC0C4" stroke-width=".5"/></svg>