<svg width="23" height="22" fill="none" xmlns="http://www.w3.org/2000/svg"><path d="M22.042 17.696H19.49a3.346 3.346 0 00-3.198-2.392 3.347 3.347 0 00-3.198 2.392H.958a.958.958 0 100 1.913h12.136A3.346 3.346 0 0016.292 22a3.347 3.347 0 003.198-2.391h2.552a.957.957 0 100-1.913zm-5.75 2.391a1.438 1.438 0 01-1.438-1.435 1.438 1.438 0 012.875 0c0 .791-.645 1.435-1.437 1.435zm5.75-17.696H19.49A3.347 3.347 0 0016.292 0a3.347 3.347 0 00-3.198 2.391H.958a.958.958 0 100 1.913h12.136a3.347 3.347 0 003.198 2.392 3.347 3.347 0 003.198-2.392h2.552a.957.957 0 100-1.913zm-5.75 2.392a1.438 1.438 0 01-1.438-1.435 1.438 1.438 0 012.875 0c0 .79-.645 1.435-1.437 1.435zm5.75 5.26H9.906a3.347 3.347 0 00-3.198-2.39 3.347 3.347 0 00-3.198 2.39H.958a.958.958 0 100 1.914H3.51a3.347 3.347 0 003.198 2.39 3.347 3.347 0 003.198-2.39h12.136a.957.957 0 100-1.914zM6.708 12.435A1.438 1.438 0 015.271 11a1.438 1.438 0 012.875 0c0 .791-.645 1.435-1.438 1.435z" fill="#BFC0C4"/></svg>