<svg width="19" height="12" fill="none" xmlns="http://www.w3.org/2000/svg"><path d="M18.459 5.281a11.126 11.126 0 00-3.922-3.833C12.894.483 11.16 0 9.334 0 7.507 0 5.773.483 4.13 1.448A11.123 11.123 0 00.208 5.281a1.442 1.442 0 00-.208.72c0 .235.07.475.208.718a11.12 11.12 0 003.922 3.833C5.773 11.518 7.507 12 9.334 12c1.826 0 3.56-.48 5.203-1.443a11.052 11.052 0 003.922-3.838c.139-.243.208-.483.208-.719s-.07-.476-.208-.719zM7.099 2.432C7.72 1.811 8.465 1.5 9.333 1.5c.14 0 .257.049.355.146A.483.483 0 019.834 2a.483.483 0 01-.146.354.482.482 0 01-.354.146 2.09 2.09 0 00-1.532.635 2.087 2.087 0 00-.635 1.532.483.483 0 01-.146.354.482.482 0 01-.354.146.482.482 0 01-.354-.146.482.482 0 01-.146-.354c0-.868.31-1.613.932-2.235zm6.76 6.97a8.578 8.578 0 01-4.525 1.265 8.575 8.575 0 01-4.527-1.266c-1.392-.843-2.55-1.977-3.474-3.4 1.056-1.64 2.379-2.866 3.97-3.678a4.552 4.552 0 00-.636 2.344c0 1.285.456 2.383 1.37 3.297.913.913 2.012 1.37 3.297 1.37 1.284 0 2.383-.457 3.296-1.37C13.544 7.05 14 5.952 14 4.667c0-.84-.212-1.622-.635-2.344 1.59.812 2.913 2.038 3.969 3.677-.924 1.424-2.082 2.558-3.474 3.401z" fill="#29006C"/></svg>