<svg width="50" height="50" fill="none" xmlns="http://www.w3.org/2000/svg"><path d="M25 0C11.215 0 0 11.214 0 25s11.215 25 25 25 25-11.214 25-25S38.785 0 25 0zm0 48.077C12.276 48.077 1.923 37.724 1.923 25 1.923 12.276 12.276 1.923 25 1.923c12.724 0 23.077 10.353 23.077 23.077 0 12.724-10.353 23.077-23.077 23.077z" fill="#B4B3BB"/><path d="M37.019 24.038H25.961V13.461a.961.961 0 10-1.923 0v10.577H12.981a.961.961 0 100 1.924h11.057V37.5a.961.961 0 101.923 0V25.962H37.02a.961.961 0 100-1.924z" fill="#B4B3BB"/></svg>