<svg width="7" height="10" fill="none" xmlns="http://www.w3.org/2000/svg"><path d="M6.16 2.56c0 .318-.051.588-.154.812a2.37 2.37 0 01-.364.588c-.14.178-.299.341-.476.49a4.8 4.8 0 00-.476.49 3.03 3.03 0 00-.392.602 1.972 1.972 0 00-.168.798H2.17c0-.392.047-.728.14-1.008.093-.289.21-.536.35-.742.14-.205.29-.382.448-.532.168-.149.322-.289.462-.42.14-.14.257-.275.35-.406a.774.774 0 00.14-.462.793.793 0 00-.252-.602c-.159-.158-.378-.238-.658-.238-.243 0-.457.103-.644.308-.177.196-.266.49-.266.882L.21 2.98c.075-.877.369-1.572.882-2.086C1.615.372 2.301.11 3.15.11c.476 0 .896.066 1.26.196.373.131.69.308.952.532.261.224.457.486.588.784.14.29.21.602.21.938zM2.17 8.02c0-.28.103-.522.308-.728a1.02 1.02 0 01.742-.322c.28 0 .523.108.728.322a.975.975 0 01.322.728c0 .28-.107.528-.322.742a.995.995 0 01-.728.308 1.04 1.04 0 01-.742-.308 1.042 1.042 0 01-.308-.742z" fill="#161718" fill-opacity=".4"/></svg>