<svg width="41" height="40" fill="none" xmlns="http://www.w3.org/2000/svg"><path d="M18.89 1.46c.445-1.39 2.412-1.39 2.857 0l3.742 11.686a1.5 1.5 0 001.428 1.042h12.156c1.448 0 2.056 1.849.89 2.708l-9.871 7.276a1.5 1.5 0 00-.538 1.665l3.761 11.746c.444 1.386-1.147 2.529-2.318 1.665l-9.789-7.215a1.5 1.5 0 00-1.78 0L9.64 39.248c-1.172.864-2.763-.279-2.319-1.665l3.762-11.746a1.5 1.5 0 00-.539-1.665L.673 16.896c-1.165-.86-.558-2.708.89-2.708h12.156a1.5 1.5 0 001.428-1.042L18.89 1.461z" fill="#FDCC0A"/></svg>