<svg width="12" height="13" fill="none" xmlns="http://www.w3.org/2000/svg"><path d="M10.95 8.463c-.121-.107-.237-.208-.289-.302l-.016-.027-.002-.004c-.213-.34-.295-1.212-.344-1.735a29.196 29.196 0 00-.024-.247v-.004c-.115-.8-.4-1.952-1.104-2.906-.481-.652-1.078-1.096-1.777-1.322A1.113 1.113 0 006.3 1c-.546 0-1.002.396-1.094.916-.692.227-1.303.68-1.777 1.323-.705.953-.989 2.106-1.103 2.905v.004a.946.946 0 00-.003.023l-.022.226c-.049.52-.13 1.392-.343 1.733l-.003.004a1.043 1.043 0 00-.014.024c-.054.097-.17.198-.291.305-.322.282-.992.87-.438 1.9a.65.65 0 00.573.341H3.33A1.422 1.422 0 004.745 12c.74 0 1.35-.57 1.414-1.296h4.656a.65.65 0 00.573-.341c.554-1.03-.115-1.617-.438-1.9zm-6.205 2.895a.779.779 0 01-.768-.654h1.535a.779.779 0 01-.767.654zm6.077-1.3a.008.008 0 01-.007.004h-9.03a.008.008 0 01-.007-.004c-.29-.54-.072-.79.295-1.112.158-.138.321-.281.427-.472l.005-.007c.269-.434.36-1.199.436-2.01l.021-.222v-.003c.104-.726.36-1.767.984-2.612.442-.598.994-.984 1.642-1.146l.243-.06V2.11a.47.47 0 01.938 0v.302l.243.061c.648.162 1.2.548 1.643 1.146.624.845.879 1.886.983 2.612v.004l.021.221c.077.814.168 1.58.437 2.01l.002.004c.108.194.271.337.43.475.366.322.585.573.294 1.112z" fill="#fff" stroke="#fff" stroke-width=".5"/></svg>