<svg width="38" height="26" fill="none" xmlns="http://www.w3.org/2000/svg"><path d="M14.732 13.185a1.45 1.45 0 01-.629.141h-2.008v-3.318h2.008c.221 0 .43.047.629.14a1.835 1.835 0 01.89.891c.093.197.14.406.14.627 0 .223-.047.432-.14.629a1.834 1.834 0 01-.89.89z" fill="#471F8A"/><path fill-rule="evenodd" clip-rule="evenodd" d="M5 0a5 5 0 00-5 5v16a5 5 0 005 5h28a5 5 0 005-5V5a5 5 0 00-5-5H5zm9.599 8.031a3.178 3.178 0 00-.238-.021 3.741 3.741 0 00-.258-.01H10v11h2.095v-3.666h2.008a3.84 3.84 0 001.467-.28c.454-.199.85-.46 1.187-.786.35-.336.617-.727.803-1.17a3.54 3.54 0 00.297-1.432c0-.5-.099-.97-.296-1.414a3.298 3.298 0 00-.804-1.17 3.57 3.57 0 00-1.187-.785l-.115-.047-.112-.041a3.531 3.531 0 00-.744-.178zm7.01 5.992L25.54 19h2.444l-4.365-5.588L27.72 8h-2.445l-3.666 4.889V8h-2.095v11h2.095v-4.977z" fill="#471F8A"/></svg>