<svg width="24" height="24" fill="none" xmlns="http://www.w3.org/2000/svg"><path d="M12 0C5.383 0 0 5.383 0 12s5.383 12 12 12 12-5.383 12-12S18.617 0 12 0zm0 21.818c-5.414 0-9.818-4.404-9.818-9.818S6.586 2.182 12 2.182 21.818 6.586 21.818 12 17.414 21.818 12 21.818z" fill="#DBDBE1"/><path fill-rule="evenodd" clip-rule="evenodd" d="M12 21.818c-5.414 0-9.818-4.404-9.818-9.818S6.586 2.182 12 2.182 21.818 6.586 21.818 12 17.414 21.818 12 21.818zm-2.931-3.813a4.15 4.15 0 015.862 0 1.091 1.091 0 001.543-1.543A6.309 6.309 0 0012 14.612c-1.62 0-3.24.616-4.474 1.85a1.09 1.09 0 001.543 1.543zM8.8 9.673c0 .382-.155.758-.426 1.028-.27.271-.646.426-1.029.426-.382 0-.757-.155-1.028-.426a1.463 1.463 0 01-.426-1.028c0-.383.155-.758.426-1.029.27-.27.645-.426 1.028-.426s.758.156 1.029.426c.271.27.426.646.426 1.029zm6.826-1.029c.27-.27.646-.426 1.028-.426.383 0 .758.156 1.029.426.27.27.426.646.426 1.029 0 .383-.156.758-.426 1.028-.27.271-.646.426-1.029.426-.382 0-.757-.155-1.028-.426a1.464 1.464 0 01-.426-1.028c0-.384.156-.758.426-1.029z" fill="#DBDBE1"/></svg>