<svg xmlns="http://www.w3.org/2000/svg" id="Layer_1" data-name="Layer 1" width="512" height="512"><path d="M355 45H145v121h210zm-48 95a7 7 0 01-7 7h-32a7 7 0 01-7-7V73a7 7 0 017-7h32a7 7 0 017 7z"/><path d="M275 80h18v52h-18zM145 321h210v39H145zm0 53h210v93H145z"/><path d="M425.727 467c18.2 0 33.273-14.458 33.273-32.654v-328.2L407.949 45H369v127.684c0 3.866-2.834 7.316-6.7 7.316H138.208a7.456 7.456 0 01-7.208-7.316V45H86.273C68.077 45 53 59.458 53 77.654v356.692C53 452.542 68.077 467 86.273 467H131V313.907a7.1 7.1 0 017.208-6.907H362.3a6.671 6.671 0 016.7 6.907V467z"/></svg>