<svg width="23" height="23" fill="none" xmlns="http://www.w3.org/2000/svg"><path d="M20.925 9.473l-1.474-.25a8.318 8.318 0 00-.592-1.43l.869-1.215a1.293 1.293 0 00-.14-1.671L18.28 3.599a1.288 1.288 0 00-1.667-.14l-1.22.869a8.236 8.236 0 00-1.482-.61l-.246-1.457a1.296 1.296 0 00-1.281-1.083h-1.847c-.636 0-1.176.456-1.28 1.083l-.255 1.492c-.492.153-.97.355-1.426.6L6.37 3.486a1.288 1.288 0 00-.755-.241 1.28 1.28 0 00-.917.382L3.386 4.933a1.299 1.299 0 00-.14 1.671l.877 1.233a8.13 8.13 0 00-.583 1.435l-1.456.245A1.296 1.296 0 001 10.798v1.847c0 .636.456 1.176 1.084 1.281l1.491.255c.154.49.355.969.601 1.425l-.864 1.202a1.293 1.293 0 00.14 1.672l1.308 1.307a1.288 1.288 0 001.667.14l1.232-.877c.443.232.908.421 1.387.57l.245 1.474a1.296 1.296 0 001.281 1.084h1.851c.636 0 1.176-.457 1.281-1.084l.25-1.474a8.336 8.336 0 001.43-.592l1.216.869c.22.158.482.24.754.24.347 0 .672-.135.917-.38l1.307-1.308a1.299 1.299 0 00.14-1.672l-.868-1.22c.241-.46.443-.938.592-1.43l1.474-.245A1.296 1.296 0 0022 12.602v-1.848a1.28 1.28 0 00-1.075-1.28zm-.1 3.128c0 .057-.04.105-.097.114l-1.843.307a.59.59 0 00-.474.435 7.022 7.022 0 01-.763 1.838.593.593 0 00.026.645l1.084 1.526a.12.12 0 01-.013.15l-1.307 1.307a.111.111 0 01-.084.035.107.107 0 01-.066-.022l-1.522-1.084a.593.593 0 00-.645-.026 7.023 7.023 0 01-1.838.763.582.582 0 00-.434.474l-.312 1.843a.114.114 0 01-.114.096h-1.846a.114.114 0 01-.114-.096l-.308-1.843a.589.589 0 00-.434-.474 7.293 7.293 0 01-1.798-.737.607.607 0 00-.299-.079.578.578 0 00-.342.11l-1.535 1.092a.13.13 0 01-.066.022.117.117 0 01-.084-.035L4.29 17.655a.119.119 0 01-.013-.15l1.08-1.513a.6.6 0 00.025-.649 6.958 6.958 0 01-.772-1.834.6.6 0 00-.473-.434l-1.856-.316a.114.114 0 01-.097-.114v-1.847c0-.057.04-.105.097-.114l1.83-.307a.593.593 0 00.477-.439 7.015 7.015 0 01.75-1.842.586.586 0 00-.03-.64L4.216 5.92a.12.12 0 01.013-.15l1.307-1.306a.111.111 0 01.083-.036c.027 0 .049.01.066.022L7.2 5.53a.6.6 0 00.649.026 6.957 6.957 0 011.834-.772.6.6 0 00.434-.474l.316-1.856a.114.114 0 01.114-.096h1.847c.057 0 .105.04.114.096l.307 1.83c.04.232.21.42.439.478a7.12 7.12 0 011.881.772c.202.118.452.11.645-.026l1.514-1.088a.13.13 0 01.066-.022c.017 0 .052.004.083.035L18.75 5.74a.12.12 0 01.014.15l-1.086 1.52a.593.593 0 00-.026.645c.342.575.596 1.194.763 1.838.057.229.246.4.474.435l1.842.311a.114.114 0 01.097.114V12.6h-.005z" fill="#BFC0C4" stroke="#BFC0C4" stroke-width=".5"/><path d="M11.501 7.143a4.535 4.535 0 00-4.531 4.531c0 2.5 2.03 4.532 4.531 4.532 2.5 0 4.532-2.031 4.532-4.532 0-2.5-2.031-4.531-4.532-4.531zm0 7.878a3.35 3.35 0 01-3.347-3.347 3.35 3.35 0 013.347-3.347 3.35 3.35 0 013.348 3.347 3.35 3.35 0 01-3.348 3.347z" fill="#BFC0C4" stroke="#BFC0C4" stroke-width=".5"/></svg>