<svg width="19" height="26" fill="none" xmlns="http://www.w3.org/2000/svg"><path d="M15.944 22.665c.625 1.46-.313 3.127-1.876 3.283-.417.052-.886.052-1.303.052-1.719 0-3.334-.313-4.897-.99a12.773 12.773 0 01-4.064-2.762c-1.147-1.198-2.085-2.553-2.762-4.116A12.78 12.78 0 010 13.026c0-1.824.365-3.543 1.042-5.106a14.179 14.179 0 012.762-4.168C4.95 2.553 6.304 1.667 7.868.99 9.43.313 11.046 0 12.765 0c.522 0 1.199.104 1.928.26 1.511.261 2.24 1.98 1.407 3.283l-.104.156c-.469.73-1.355 1.095-2.24.99-.313-.052-.678-.052-1.043-.052a7.232 7.232 0 00-2.97.626c-.937.416-1.719.99-2.448 1.719a8.545 8.545 0 00-1.668 2.657 8.83 8.83 0 00-.625 3.335c0 1.198.208 2.345.625 3.335.417 1.042.99 1.875 1.668 2.657a7.435 7.435 0 002.448 1.72 7.232 7.232 0 002.97.625c.26 0 .574 0 .834-.052 1.042-.053 1.98.468 2.397 1.406z" fill="#fff"/><path d="M16.414 11.828a2.345 2.345 0 100-4.69 2.345 2.345 0 000 4.69zm0 6.252a2.345 2.345 0 100-4.69 2.345 2.345 0 000 4.69z" fill="#fff"/></svg>