<svg width="30" height="30" fill="none" xmlns="http://www.w3.org/2000/svg"><path d="M30 15c0 8.288-6.712 15-15 15-8.287 0-15-6.712-15-15C0 6.713 6.713 0 15 0c8.288 0 15 6.713 15 15z" fill="url(#paint0_linear)"/><path d="M12.25 21.875c-.488 0-.4-.188-.575-.65l-1.425-4.7L19.1 11l1.037.275-.862 2.35-7.025 8.25z" fill="#A9C9DD"/><path d="M12.25 21.875c.375 0 .537-.175.75-.375.325-.313 4.5-4.375 4.5-4.375l-2.563-.625-2.374 1.5-.313 3.75v.125z" fill="#C8DAEA"/><path d="M12.5 18.05l6.05 4.462c.688.375 1.188.188 1.363-.637l2.462-11.6c.25-1.013-.387-1.463-1.05-1.163l-14.45 5.575c-.987.4-.975.95-.175 1.188l3.713 1.162L19 11.625c.4-.25.775-.113.475.162L12.5 18.05z" fill="url(#paint1_linear)"/><defs><linearGradient id="paint0_linear" x1="19.396" y1="4.741" x2="11.896" y2="22.241" gradientUnits="userSpaceOnUse"><stop stop-color="#37AEE2"/><stop offset="1" stop-color="#1E96C8"/></linearGradient><linearGradient id="paint1_linear" x1="16.124" y1="15.469" x2="19.249" y2="20.469" gradientUnits="userSpaceOnUse"><stop stop-color="#EFF7FC"/><stop offset="1" stop-color="#fff"/></linearGradient></defs></svg>