<svg width="20" height="20" fill="none" xmlns="http://www.w3.org/2000/svg"><circle cx="10" cy="10" r="10" fill="#4A76A8"/><path d="M14.46 12.419a.722.722 0 00-.035-.069c-.183-.328-.531-.732-1.046-1.21l-.01-.01-.006-.006-.006-.006h-.005a6.3 6.3 0 01-.444-.449c-.113-.146-.138-.294-.076-.443.043-.114.208-.352.492-.718.15-.193.269-.348.356-.465.632-.84.905-1.376.822-1.61l-.033-.054c-.022-.033-.079-.063-.17-.09a.862.862 0 00-.35-.014l-1.577.01a.204.204 0 00-.11.003l-.07.017-.028.014-.022.016a.244.244 0 00-.06.057.374.374 0 00-.055.096 8.94 8.94 0 01-.586 1.232c-.135.227-.26.423-.372.589a2.829 2.829 0 01-.285.367 1.981 1.981 0 01-.208.188c-.062.048-.11.068-.142.06a3.937 3.937 0 01-.094-.021.365.365 0 01-.123-.134.602.602 0 01-.063-.214 2.373 2.373 0 01-.016-.485c.004-.113.005-.19.005-.23 0-.138.003-.289.008-.451l.014-.386c.004-.095.006-.195.006-.301a1.26 1.26 0 00-.02-.25.844.844 0 00-.057-.175.295.295 0 00-.112-.131.633.633 0 00-.183-.074A3.643 3.643 0 009.059 7c-.679-.008-1.115.036-1.308.131a.738.738 0 00-.208.164c-.066.08-.075.125-.028.132.22.033.374.111.466.235l.032.066a.988.988 0 01.077.252c.026.12.042.254.05.4.018.266.018.494 0 .684-.019.19-.036.338-.053.443a.888.888 0 01-.14.378.094.094 0 01-.027.028.41.41 0 01-.147.027c-.052 0-.114-.026-.187-.077a1.314 1.314 0 01-.227-.21 2.818 2.818 0 01-.265-.376 6.353 6.353 0 01-.307-.569l-.088-.159c-.054-.102-.13-.25-.224-.446a8.61 8.61 0 01-.252-.567.361.361 0 00-.131-.175l-.028-.016a.58.58 0 00-.214-.082l-1.5.01c-.153 0-.257.035-.312.104l-.022.033A.177.177 0 004 7.5c0 .04.011.09.033.148.219.514.457 1.01.714 1.489.258.478.481.863.671 1.155.19.292.383.568.58.827.198.26.328.425.392.498.064.073.114.128.15.165l.137.13c.088.088.217.194.386.316.17.122.358.242.564.361.207.119.447.216.72.29.274.075.54.105.8.09h.63a.437.437 0 00.29-.12l.022-.027a.366.366 0 00.04-.101.557.557 0 00.02-.15 1.802 1.802 0 01.035-.425c.028-.126.059-.221.094-.285a.697.697 0 01.21-.24.352.352 0 01.044-.02c.088-.03.19 0 .31.085.118.086.23.192.333.318.105.126.23.267.375.424.147.157.274.274.384.35l.11.066c.072.044.167.084.284.12a.614.614 0 00.307.028l1.401-.022a.635.635 0 00.323-.069c.077-.045.123-.095.137-.15a.423.423 0 00.003-.186.688.688 0 00-.039-.145z" fill="#fff"/></svg>