<svg width="20" height="11" fill="none" xmlns="http://www.w3.org/2000/svg"><path d="M19.178 9.934a1.314 1.314 0 00-.066-.125c-.334-.603-.973-1.342-1.917-2.219l-.02-.02-.01-.01-.01-.01h-.01c-.428-.408-.7-.683-.813-.823-.208-.268-.255-.539-.14-.813.08-.208.38-.646.902-1.315.275-.355.492-.64.653-.853 1.158-1.54 1.66-2.523 1.506-2.952l-.06-.1c-.04-.06-.144-.115-.311-.165-.168-.05-.382-.059-.643-.025l-2.89.02a.375.375 0 00-.201.005l-.131.03-.05.025-.04.03a.446.446 0 00-.11.105.69.69 0 00-.1.176c-.316.81-.674 1.563-1.075 2.259a21.62 21.62 0 01-.683 1.079 5.185 5.185 0 01-.522.672c-.14.144-.267.26-.381.346-.114.088-.2.124-.261.111a7.547 7.547 0 01-.17-.04.668.668 0 01-.227-.246 1.102 1.102 0 01-.115-.392 4.316 4.316 0 01-.035-.406 8.508 8.508 0 01.005-.482c.007-.208.01-.348.01-.422 0-.254.005-.53.015-.828l.025-.707c.007-.174.01-.359.01-.553 0-.194-.012-.346-.035-.456a1.556 1.556 0 00-.105-.322.54.54 0 00-.206-.24 1.16 1.16 0 00-.336-.136c-.355-.08-.807-.124-1.356-.13-1.244-.014-2.044.066-2.399.24-.14.074-.267.174-.381.301-.12.148-.137.228-.05.241.401.06.685.204.853.432l.06.12c.047.087.094.241.14.462.047.221.078.465.09.733a7.68 7.68 0 010 1.255c-.033.348-.064.619-.094.813a1.628 1.628 0 01-.256.692.173.173 0 01-.05.05.752.752 0 01-.272.05c-.093 0-.207-.046-.341-.14a2.409 2.409 0 01-.416-.386 5.167 5.167 0 01-.487-.688 12 12 0 01-.563-1.044l-.16-.291c-.1-.187-.238-.46-.412-.818a15.78 15.78 0 01-.461-1.04.662.662 0 00-.241-.32l-.05-.03a.687.687 0 00-.161-.086 1.065 1.065 0 00-.231-.065l-2.75.02C.362.503.17.567.07.693L.03.755a.325.325 0 00-.03.16.8.8 0 00.06.272c.402.943.838 1.853 1.31 2.73.472.877.882 1.583 1.23 2.118.348.535.702 1.04 1.064 1.516.361.475.6.78.718.913.117.134.209.234.276.301l.25.241c.161.16.397.353.708.577.312.225.656.445 1.034.663.378.217.818.395 1.32.532.502.137.99.192 1.466.166h1.154c.235-.02.412-.094.532-.221l.04-.05a.667.667 0 00.076-.186c.023-.084.035-.176.035-.276a3.314 3.314 0 01.065-.778c.05-.23.107-.405.17-.522a1.283 1.283 0 01.387-.441.652.652 0 01.08-.036c.161-.053.35-.001.568.156.217.157.421.352.612.582.19.231.42.49.688.778.268.288.502.502.702.643l.201.12c.134.08.308.154.522.221.214.067.401.084.562.05l2.57-.04c.254 0 .452-.042.592-.125.14-.084.224-.176.251-.276a.777.777 0 00.005-.342 1.263 1.263 0 00-.07-.266z" fill="#fff"/></svg>