<svg width="20" height="20" fill="none" xmlns="http://www.w3.org/2000/svg"><circle cx="10" cy="10" r="10" fill="#26D367"/><path d="M14.46 12.752a.722.722 0 00-.035-.069c-.183-.328-.531-.731-1.046-1.21l-.01-.01-.006-.006-.004-.004a.007.007 0 00-.005-.001l-.004-.002a6.323 6.323 0 01-.442-.447c-.113-.146-.138-.294-.076-.444.043-.113.208-.352.492-.717.15-.194.269-.349.356-.466.581-.772.86-1.288.835-1.548a.284.284 0 00-.046-.116c-.022-.033-.079-.063-.17-.09a.862.862 0 00-.35-.014l-1.466.01c-.074 0-.15-.013-.22.004a46.4 46.4 0 01-.055.012.145.145 0 00-.055.026l-.011.008a.244.244 0 00-.06.058.374.374 0 00-.055.096 8.94 8.94 0 01-.586 1.231c-.135.227-.26.423-.372.59a2.83 2.83 0 01-.285.366 1.982 1.982 0 01-.208.189c-.062.047-.11.067-.142.06a.304.304 0 01-.166-.084.389.389 0 01-.05-.072.602.602 0 01-.064-.214 2.373 2.373 0 01-.016-.484c.004-.113.005-.19.005-.23 0-.139.003-.29.008-.452l.014-.386a7.76 7.76 0 00.006-.301 1.26 1.26 0 00-.02-.25.844.844 0 00-.057-.174.295.295 0 00-.112-.132.633.633 0 00-.183-.074 3.643 3.643 0 00-.74-.07c-.679-.008-1.115.036-1.308.13a.738.738 0 00-.208.165c-.066.08-.075.124-.028.131.185.028.324.088.417.18.035.034.06.078.081.121.026.048.052.132.077.252.026.12.042.254.05.4.018.266.018.494 0 .684-.019.19-.036.338-.053.444a.889.889 0 01-.14.377.094.094 0 01-.027.028.41.41 0 01-.147.027.346.346 0 01-.187-.076 1.31 1.31 0 01-.227-.211 2.817 2.817 0 01-.265-.375 6.246 6.246 0 01-.307-.57l-.088-.159c-.054-.102-.13-.25-.224-.446a8.6 8.6 0 01-.252-.566.361.361 0 00-.131-.176l-.028-.016a.375.375 0 00-.087-.047.66.66 0 00-.257-.034l-1.37.01c-.153 0-.257.034-.312.104l-.022.033A.177.177 0 004 7.832c0 .04.011.09.033.148.219.515.457 1.011.714 1.49.258.478.481.863.671 1.154.19.293.383.568.58.827.198.26.328.426.392.499.064.073.114.127.15.164l.137.131c.088.088.217.193.386.315.17.122.358.243.564.362.207.118.447.215.72.29.274.075.54.105.8.09h.63a.436.436 0 00.29-.12l.022-.028a.365.365 0 00.04-.101.557.557 0 00.02-.15 1.802 1.802 0 01.035-.425c.028-.126.059-.22.094-.285a.699.699 0 01.21-.24.352.352 0 01.044-.02c.088-.029.19 0 .31.085.118.086.23.192.333.318.105.126.23.267.375.424.147.157.274.274.384.35l.11.066c.072.044.167.084.284.12.198.063.41.027.618.023l1.09-.017a.635.635 0 00.323-.068c.077-.046.123-.096.137-.15a.423.423 0 00.003-.187.69.69 0 00-.039-.145z" fill="#fff"/><circle cx="10" cy="10" r="10" fill="#26D367"/><path d="M14.667 9.88c0 2.51-2.051 4.546-4.582 4.546a4.595 4.595 0 01-1.788-.36 1.274 1.274 0 00-.878-.062l-.1.032a1.053 1.053 0 01-1.316-1.343c.1-.295.057-.617-.075-.899a4.5 4.5 0 01-.425-1.914c0-2.511 2.051-4.547 4.582-4.547 2.53 0 4.582 2.036 4.582 4.547zm-4.582-3.823c-2.124 0-3.852 1.715-3.852 3.823 0 .725.205 1.404.56 1.982.102.167.136.37.073.554a.6.6 0 00.75.765l.062-.02a.697.697 0 01.546.064 3.85 3.85 0 001.861.477c2.124 0 3.852-1.714 3.852-3.822s-1.728-3.823-3.852-3.823zm2.314 4.87c-.029-.046-.103-.075-.216-.13a18.803 18.803 0 00-.767-.363c-.103-.037-.178-.055-.253.056a6.45 6.45 0 01-.356.437c-.065.074-.13.084-.243.028-.112-.056-.474-.174-.903-.553a3.359 3.359 0 01-.625-.772c-.065-.111-.007-.171.05-.227.05-.05.112-.13.168-.195.056-.065.075-.112.112-.186.038-.074.02-.14-.01-.195-.027-.056-.252-.604-.345-.828-.094-.223-.187-.185-.253-.185s-.14-.01-.215-.01a.414.414 0 00-.3.14c-.103.111-.393.38-.393.93 0 .548.402 1.077.459 1.152.056.074.776 1.236 1.918 1.682 1.142.446 1.142.297 1.348.278.206-.018.664-.269.758-.53.094-.26.094-.483.066-.53z" fill="#fff"/></svg>