<svg width="18" height="20" fill="none" xmlns="http://www.w3.org/2000/svg"><path d="M12.457 8.734a.703.703 0 00-.703-.703H4.512a.703.703 0 100 1.406h7.242a.703.703 0 00.703-.703zm-7.945 2.11a.703.703 0 100 1.406H8.91a.703.703 0 100-1.406H4.512z" fill="#481E8C"/><path d="M6.164 17.594H3.813a1.408 1.408 0 01-1.407-1.407V3.813c0-.775.631-1.406 1.406-1.406h8.645c.775 0 1.406.631 1.406 1.406v4.325a.703.703 0 101.407 0V3.812A2.816 2.816 0 0012.457 1H3.812A2.816 2.816 0 001 3.813v12.374A2.816 2.816 0 003.813 19h2.351a.703.703 0 100-1.406z" fill="#481E8C"/><path d="M16.515 11.18a2.111 2.111 0 00-2.983 0l-3.86 3.851a.703.703 0 00-.176.294l-.84 2.768a.703.703 0 00.86.881l2.838-.786a.702.702 0 00.309-.18l3.852-3.845a2.112 2.112 0 000-2.983zM11.8 16.883l-1.428.395.418-1.376 2.605-2.599.995.995-2.59 2.585zm3.721-3.714l-.136.136-.995-.995.136-.135a.704.704 0 01.995.994zm-3.767-7.95H4.512a.703.703 0 100 1.406h7.242a.703.703 0 000-1.406z" fill="#481E8C"/><path d="M12.457 8.734a.703.703 0 00-.703-.703H4.512a.703.703 0 100 1.406h7.242a.703.703 0 00.703-.703zm-7.945 2.11a.703.703 0 100 1.406H8.91a.703.703 0 100-1.406H4.512z" stroke="#481E8C" stroke-width=".3"/><path d="M6.164 17.594H3.813a1.408 1.408 0 01-1.407-1.407V3.813c0-.775.631-1.406 1.406-1.406h8.645c.775 0 1.406.631 1.406 1.406v4.325a.703.703 0 101.407 0V3.812A2.816 2.816 0 0012.457 1H3.812A2.816 2.816 0 001 3.813v12.374A2.816 2.816 0 003.813 19h2.351a.703.703 0 100-1.406z" stroke="#481E8C" stroke-width=".3"/><path d="M16.515 11.18a2.111 2.111 0 00-2.983 0l-3.86 3.851a.703.703 0 00-.176.294l-.84 2.768a.703.703 0 00.86.881l2.838-.786a.702.702 0 00.309-.18l3.852-3.845a2.112 2.112 0 000-2.983zM11.8 16.883l-1.428.395.418-1.376 2.605-2.599.995.995-2.59 2.585zm3.721-3.714l-.136.136-.995-.995.136-.135a.704.704 0 01.995.994zm-3.767-7.95H4.512a.703.703 0 100 1.406h7.242a.703.703 0 000-1.406z" stroke="#481E8C" stroke-width=".3"/></svg>